<svg width="11" height="14" viewBox="0 0 11 14" fill="none" xmlns="http://www.w3.org/2000/svg">
<path d="M4.37793 8.71875H6.62207C8.74879 8.71875 10.5 10.5053 10.5 12.7461C10.4999 12.9022 10.3813 13 10.2705 13H0.729492C0.618669 13 0.500099 12.9022 0.5 12.7461C0.5 10.5053 2.25121 8.71875 4.37793 8.71875ZM5.5 1C6.19542 1 6.86626 1.28584 7.36328 1.7998C7.86064 2.31431 8.14258 3.01552 8.14258 3.75C8.14258 4.48448 7.86064 5.18569 7.36328 5.7002C6.86626 6.21416 6.19542 6.5 5.5 6.5C4.80458 6.5 4.13374 6.21416 3.63672 5.7002C3.13936 5.18569 2.85742 4.48448 2.85742 3.75C2.85742 3.01552 3.13936 2.31431 3.63672 1.7998C4.13374 1.28584 4.80458 1 5.5 1Z" stroke="#407CF4"/>
</svg>
