<svg width="21" height="21" viewBox="0 0 21 21" fill="none" xmlns="http://www.w3.org/2000/svg">
<path d="M10.4727 15.9438C13.231 15.9438 15.4727 13.7021 15.4727 10.9438V6.7771C15.4727 4.01877 13.231 1.7771 10.4727 1.7771C7.71432 1.7771 5.47266 4.01877 5.47266 6.7771V10.9438C5.47266 13.7021 7.71432 15.9438 10.4727 15.9438Z" stroke="#5D5D5D" stroke-width="1.5" stroke-linecap="round" stroke-linejoin="round"/>
<path d="M2.97266 9.2771V10.9438C2.97266 15.0854 6.33099 18.4438 10.4727 18.4438C14.6143 18.4438 17.9727 15.0854 17.9727 10.9438V9.2771" stroke="#5D5D5D" stroke-width="1.5" stroke-linecap="round" stroke-linejoin="round"/>
<path d="M8.0625 6.34375C9.54583 5.80208 11.1625 5.80208 12.6458 6.34375" stroke="#5D5D5D" stroke-width="1.5" stroke-linecap="round" stroke-linejoin="round"/>
<path d="M8.82812 8.8437C9.82813 8.5687 10.8865 8.5687 11.8865 8.8437" stroke="#5D5D5D" stroke-width="1.5" stroke-linecap="round" stroke-linejoin="round"/>
</svg>
