<svg width="12" height="12" viewBox="0 0 12 12" fill="none" xmlns="http://www.w3.org/2000/svg">
<path d="M7.8291 0.470703C8.12826 0.470703 8.37109 0.694561 8.37109 0.970703V1.4707H9.4541C10.3516 1.4707 11.0791 2.14228 11.0791 2.9707V9.9707C11.0791 10.7991 10.3516 11.4707 9.4541 11.4707H1.87109C0.973631 11.4707 0.246094 10.7991 0.246094 9.9707V2.9707C0.246094 2.14228 0.973631 1.4707 1.87109 1.4707H2.9541V0.970703C2.9541 0.694561 3.19694 0.470703 3.49609 0.470703C3.79525 0.470703 4.03809 0.694561 4.03809 0.970703V1.4707H7.28809V0.970703C7.28809 0.694661 7.5301 0.470865 7.8291 0.470703ZM1.3291 9.9707C1.3291 10.2468 1.57194 10.4707 1.87109 10.4707H9.4541C9.75326 10.4707 9.99609 10.2468 9.99609 9.9707V5.4707H1.3291V9.9707ZM1.87109 2.4707C1.57194 2.4707 1.3291 2.69456 1.3291 2.9707V4.4707H9.99609V2.9707C9.99609 2.69456 9.75326 2.4707 9.4541 2.4707H8.37109V2.9707C8.37109 3.24685 8.12826 3.4707 7.8291 3.4707C7.5301 3.47054 7.28809 3.24675 7.28809 2.9707V2.4707H4.03809V2.9707C4.03809 3.24685 3.79525 3.4707 3.49609 3.4707C3.19694 3.4707 2.9541 3.24685 2.9541 2.9707V2.4707H1.87109Z" fill="#111111"/>
<mask id="mask0_310_27617" style="mask-type:luminance" maskUnits="userSpaceOnUse" x="0" y="0" width="12" height="12">
<path d="M7.8291 0.470703C8.12826 0.470703 8.37109 0.694561 8.37109 0.970703V1.4707H9.4541C10.3516 1.4707 11.0791 2.14228 11.0791 2.9707V9.9707C11.0791 10.7991 10.3516 11.4707 9.4541 11.4707H1.87109C0.973631 11.4707 0.246094 10.7991 0.246094 9.9707V2.9707C0.246094 2.14228 0.973631 1.4707 1.87109 1.4707H2.9541V0.970703C2.9541 0.694561 3.19694 0.470703 3.49609 0.470703C3.79525 0.470703 4.03809 0.694561 4.03809 0.970703V1.4707H7.28809V0.970703C7.28809 0.694661 7.5301 0.470865 7.8291 0.470703ZM1.3291 9.9707C1.3291 10.2468 1.57194 10.4707 1.87109 10.4707H9.4541C9.75326 10.4707 9.99609 10.2468 9.99609 9.9707V5.4707H1.3291V9.9707ZM1.87109 2.4707C1.57194 2.4707 1.3291 2.69456 1.3291 2.9707V4.4707H9.99609V2.9707C9.99609 2.69456 9.75326 2.4707 9.4541 2.4707H8.37109V2.9707C8.37109 3.24685 8.12826 3.4707 7.8291 3.4707C7.5301 3.47054 7.28809 3.24675 7.28809 2.9707V2.4707H4.03809V2.9707C4.03809 3.24685 3.79525 3.4707 3.49609 3.4707C3.19694 3.4707 2.9541 3.24685 2.9541 2.9707V2.4707H1.87109Z" fill="white"/>
</mask>
<g mask="url(#mask0_310_27617)">
</g>
</svg>
