<svg width="12" height="13" viewBox="0 0 12 13" fill="none" xmlns="http://www.w3.org/2000/svg">
<path d="M5.63965 0.941406C8.63104 0.941569 11.0557 3.18008 11.0557 5.94141C11.0557 7.62721 10.0794 9.27929 8.46973 10.8477C7.91782 11.3854 7.32816 11.876 6.73828 12.3096C6.53165 12.4614 6.33921 12.5955 6.16602 12.7109C6.0604 12.7813 5.98303 12.8306 5.93945 12.8574C5.75754 12.9692 5.52073 12.9693 5.33887 12.8574C5.29529 12.8306 5.21792 12.7813 5.1123 12.7109C4.93911 12.5955 4.74666 12.4614 4.54004 12.3096C3.95012 11.876 3.36053 11.3854 2.80859 10.8477C1.19899 9.27931 0.222656 7.62719 0.222656 5.94141C0.222656 3.17998 2.64811 0.941406 5.63965 0.941406ZM5.63965 1.94141C3.24641 1.94141 1.30566 3.73227 1.30566 5.94141C1.30566 7.31807 2.15756 8.75981 3.59473 10.1602C4.1091 10.6613 4.66229 11.1202 5.21484 11.5264C5.36569 11.6372 5.5084 11.7386 5.63965 11.8281C5.77089 11.7386 5.91264 11.6372 6.06348 11.5264C6.61607 11.1202 7.16918 10.6614 7.68359 10.1602C9.12083 8.75977 9.97266 7.3181 9.97266 5.94141C9.97266 3.73237 8.03273 1.94157 5.63965 1.94141ZM5.63965 3.94141C6.83612 3.94157 7.80566 4.83694 7.80566 5.94141C7.80566 7.04588 6.83612 7.94124 5.63965 7.94141C4.44303 7.94141 3.47266 7.04598 3.47266 5.94141C3.47266 4.83684 4.44303 3.94141 5.63965 3.94141ZM5.63965 4.94141C5.04134 4.94141 4.55566 5.38912 4.55566 5.94141C4.55566 6.49369 5.04134 6.94141 5.63965 6.94141C6.23781 6.94124 6.72266 6.49359 6.72266 5.94141C6.72266 5.38922 6.23781 4.94157 5.63965 4.94141Z" fill="#111111"/>
<mask id="mask0_310_28119" style="mask-type:luminance" maskUnits="userSpaceOnUse" x="0" y="0" width="12" height="13">
<path d="M5.63965 0.941406C8.63104 0.941569 11.0557 3.18008 11.0557 5.94141C11.0557 7.62721 10.0794 9.27929 8.46973 10.8477C7.91782 11.3854 7.32816 11.876 6.73828 12.3096C6.53165 12.4614 6.33921 12.5955 6.16602 12.7109C6.0604 12.7813 5.98303 12.8306 5.93945 12.8574C5.75754 12.9692 5.52073 12.9693 5.33887 12.8574C5.29529 12.8306 5.21792 12.7813 5.1123 12.7109C4.93911 12.5955 4.74666 12.4614 4.54004 12.3096C3.95012 11.876 3.36053 11.3854 2.80859 10.8477C1.19899 9.27931 0.222656 7.62719 0.222656 5.94141C0.222656 3.17998 2.64811 0.941406 5.63965 0.941406ZM5.63965 1.94141C3.24641 1.94141 1.30566 3.73227 1.30566 5.94141C1.30566 7.31807 2.15756 8.75981 3.59473 10.1602C4.1091 10.6613 4.66229 11.1202 5.21484 11.5264C5.36569 11.6372 5.5084 11.7386 5.63965 11.8281C5.77089 11.7386 5.91264 11.6372 6.06348 11.5264C6.61607 11.1202 7.16918 10.6614 7.68359 10.1602C9.12083 8.75977 9.97266 7.3181 9.97266 5.94141C9.97266 3.73237 8.03273 1.94157 5.63965 1.94141ZM5.63965 3.94141C6.83612 3.94157 7.80566 4.83694 7.80566 5.94141C7.80566 7.04588 6.83612 7.94124 5.63965 7.94141C4.44303 7.94141 3.47266 7.04598 3.47266 5.94141C3.47266 4.83684 4.44303 3.94141 5.63965 3.94141ZM5.63965 4.94141C5.04134 4.94141 4.55566 5.38912 4.55566 5.94141C4.55566 6.49369 5.04134 6.94141 5.63965 6.94141C6.23781 6.94124 6.72266 6.49359 6.72266 5.94141C6.72266 5.38922 6.23781 4.94157 5.63965 4.94141Z" fill="white"/>
</mask>
<g mask="url(#mask0_310_28119)">
</g>
</svg>
