<svg width="21" height="21" viewBox="0 0 21 21" fill="none" xmlns="http://www.w3.org/2000/svg">
<path d="M10.8542 10.4701C13.1554 10.4701 15.0208 8.60457 15.0208 6.30339C15.0208 4.0022 13.1554 2.13672 10.8542 2.13672C8.55298 2.13672 6.6875 4.0022 6.6875 6.30339C6.6875 8.60457 8.55298 10.4701 10.8542 10.4701Z" stroke="#39A836" stroke-width="1.5" stroke-linecap="round" stroke-linejoin="round"/>
<path d="M3.69531 18.804C3.69531 15.579 6.90364 12.9707 10.8536 12.9707C11.6536 12.9707 12.4287 13.079 13.1537 13.279" stroke="#39A836" stroke-width="1.5" stroke-linecap="round" stroke-linejoin="round"/>
<path d="M19.1901 15.472C19.1901 16.097 19.0151 16.6887 18.7068 17.1887C18.5318 17.4887 18.3068 17.7553 18.0484 17.972C17.4651 18.497 16.6984 18.8053 15.8568 18.8053C14.6401 18.8053 13.5818 18.1553 13.0068 17.1887C12.6984 16.6887 12.5234 16.097 12.5234 15.472C12.5234 14.422 13.0068 13.4803 13.7734 12.872C14.3484 12.4137 15.0734 12.1387 15.8568 12.1387C17.6984 12.1387 19.1901 13.6303 19.1901 15.472Z" stroke="#39A836" stroke-width="1.5" stroke-miterlimit="10" stroke-linecap="round" stroke-linejoin="round"/>
<path d="M14.5586 15.4709L15.3836 16.2959L17.1586 14.6543" stroke="#39A836" stroke-width="1.5" stroke-linecap="round" stroke-linejoin="round"/>
</svg>
