<svg width="13" height="12" viewBox="0 0 13 12" fill="none" xmlns="http://www.w3.org/2000/svg">
<path d="M6.6416 0.441406C9.9323 0.441406 12.6006 2.90384 12.6006 5.94141C12.6006 8.97897 9.9323 11.4414 6.6416 11.4414C3.35105 11.4412 0.683594 8.97887 0.683594 5.94141C0.683594 2.90394 3.35105 0.441568 6.6416 0.441406ZM6.6416 1.44141C3.94936 1.44157 1.7666 3.45622 1.7666 5.94141C1.7666 8.42659 3.94936 10.4412 6.6416 10.4414C9.33399 10.4414 11.5166 8.42669 11.5166 5.94141C11.5166 3.45612 9.33399 1.44141 6.6416 1.44141ZM6.6416 2.44141C6.94076 2.44141 7.18359 2.66526 7.18359 2.94141V5.73438L8.65039 7.08789C8.86158 7.28309 8.86158 7.59972 8.65039 7.79492C8.43886 7.99018 8.09532 7.99018 7.88379 7.79492L6.25879 6.29492C6.15726 6.20116 6.10059 6.07398 6.10059 5.94141V2.94141C6.10059 2.66536 6.3426 2.44157 6.6416 2.44141Z" fill="#111111"/>
<mask id="mask0_310_28108" style="mask-type:luminance" maskUnits="userSpaceOnUse" x="0" y="0" width="13" height="12">
<path d="M6.6416 0.441406C9.9323 0.441406 12.6006 2.90384 12.6006 5.94141C12.6006 8.97897 9.9323 11.4414 6.6416 11.4414C3.35105 11.4412 0.683594 8.97887 0.683594 5.94141C0.683594 2.90394 3.35105 0.441568 6.6416 0.441406ZM6.6416 1.44141C3.94936 1.44157 1.7666 3.45622 1.7666 5.94141C1.7666 8.42659 3.94936 10.4412 6.6416 10.4414C9.33399 10.4414 11.5166 8.42669 11.5166 5.94141C11.5166 3.45612 9.33399 1.44141 6.6416 1.44141ZM6.6416 2.44141C6.94076 2.44141 7.18359 2.66526 7.18359 2.94141V5.73438L8.65039 7.08789C8.86158 7.28309 8.86158 7.59972 8.65039 7.79492C8.43886 7.99018 8.09532 7.99018 7.88379 7.79492L6.25879 6.29492C6.15726 6.20116 6.10059 6.07398 6.10059 5.94141V2.94141C6.10059 2.66536 6.3426 2.44157 6.6416 2.44141Z" fill="white"/>
</mask>
<g mask="url(#mask0_310_28108)">
</g>
</svg>
