<svg width="22" height="23" viewBox="0 0 22 23" fill="none" xmlns="http://www.w3.org/2000/svg">
<path fill-rule="evenodd" clip-rule="evenodd" d="M8.43002 7.45996C8.24063 7.45996 8.02002 7.63681 8.02002 7.92996C8.02002 8.18192 8.07324 8.24843 8.07866 8.25521C8.0786 8.25513 8.07875 8.25532 8.07866 8.25521C8.0902 8.26984 8.13387 8.31679 8.31921 8.38257L10.7251 9.22464C11.0143 9.32922 11.3666 9.49828 11.6322 9.83807C11.905 10.1871 12.01 10.6159 12.01 11.09C12.01 12.1368 11.1906 13.06 10.1 13.06H8.60002C7.42055 13.06 6.52002 12.058 6.52002 10.91C6.52002 10.4957 6.85581 10.16 7.27002 10.16C7.68423 10.16 8.02002 10.4957 8.02002 10.91C8.02002 11.3019 8.31948 11.56 8.60002 11.56H10.1C10.2894 11.56 10.51 11.3831 10.51 11.09C10.51 10.8375 10.4566 10.7697 10.4506 10.7621C10.4388 10.747 10.3963 10.7012 10.2183 10.6365L7.81963 9.79694C7.52598 9.69293 7.16958 9.52477 6.90115 9.18443C6.62502 8.83434 6.52002 8.40382 6.52002 7.92996C6.52002 6.88311 7.33941 5.95996 8.43002 5.95996H9.94015C11.1091 5.97576 12.02 6.94871 12.02 8.10996C12.02 8.52418 11.6842 8.85996 11.27 8.85996C10.8558 8.85996 10.52 8.52418 10.52 8.10996C10.52 7.73283 10.2334 7.46639 9.92388 7.45996H8.43002Z" fill="#909294"/>
<path fill-rule="evenodd" clip-rule="evenodd" d="M9.27002 11.6099C9.68423 11.6099 10.02 11.9456 10.02 12.3599V13.0999C10.02 13.5141 9.68423 13.8499 9.27002 13.8499C8.85581 13.8499 8.52002 13.5141 8.52002 13.0999V12.3599C8.52002 11.9456 8.85581 11.6099 9.27002 11.6099Z" fill="#909294"/>
<path fill-rule="evenodd" clip-rule="evenodd" d="M9.27002 5.16992C9.68423 5.16992 10.02 5.50571 10.02 5.91992V6.69992C10.02 7.11414 9.68423 7.44992 9.27002 7.44992C8.85581 7.44992 8.52002 7.11414 8.52002 6.69992V5.91992C8.52002 5.50571 8.85581 5.16992 9.27002 5.16992Z" fill="#909294"/>
<path fill-rule="evenodd" clip-rule="evenodd" d="M9.26002 2.25977C5.26148 2.25977 2.02002 5.50122 2.02002 9.49977C2.02002 13.4983 5.26148 16.7398 9.26002 16.7398C13.2586 16.7398 16.5 13.4983 16.5 9.49977C16.5 5.50122 13.2586 2.25977 9.26002 2.25977ZM0.52002 9.49977C0.52002 4.6728 4.43305 0.759766 9.26002 0.759766C14.087 0.759766 18 4.6728 18 9.49977C18 14.3267 14.087 18.2398 9.26002 18.2398C4.43305 18.2398 0.52002 14.3267 0.52002 9.49977Z" fill="#909294"/>
<path fill-rule="evenodd" clip-rule="evenodd" d="M18.5714 12.0716C18.8134 11.7354 19.2821 11.6591 19.6183 11.9012C21.0545 12.9352 22.0001 14.627 22.0001 16.5398C22.0001 19.684 19.4443 22.2398 16.3001 22.2398C14.3648 22.2398 12.6716 21.2818 11.6381 19.8235C11.3986 19.4855 11.4785 19.0174 11.8164 18.7779C12.1544 18.5384 12.6225 18.6182 12.862 18.9562C13.6285 20.0378 14.8753 20.7398 16.3001 20.7398C18.6158 20.7398 20.5001 18.8556 20.5001 16.5398C20.5001 15.1326 19.8057 13.8844 18.7418 13.1185C18.4057 12.8764 18.3294 12.4077 18.5714 12.0716Z" fill="#909294"/>
</svg>
