<svg width="26" height="26" viewBox="0 0 26 26" fill="none" xmlns="http://www.w3.org/2000/svg">
<path d="M14.6377 21.3347C15.4397 21.3347 15.942 22.2044 15.5391 22.8992C14.9797 23.8627 13.9505 24.4568 12.8359 24.4568C11.7214 24.4568 10.6922 23.8627 10.1328 22.8992C9.72993 22.2044 10.2311 21.3347 11.0342 21.3347H14.6377ZM12.832 1.54177C13.1131 1.54178 13.3837 1.55255 13.6543 1.58376C13.696 1.58376 13.7279 1.59353 13.7695 1.59353C14.3423 1.66658 14.748 2.1877 14.6855 2.76052C14.6126 3.28133 14.165 3.67751 13.6338 3.67751C13.5912 3.67751 13.561 3.66683 13.5195 3.66677C13.4987 3.66677 13.4671 3.65603 13.4463 3.65603C13.2485 3.63521 13.0402 3.62479 12.832 3.62478C9.38422 3.62478 6.58221 6.42701 6.58203 9.87478V15.0838C6.58197 15.8441 6.38341 16.5523 6.0293 17.1668H19.6445C19.2904 16.5523 19.0821 15.8441 19.082 15.0838V10.4793C19.082 9.90646 19.5503 9.43746 20.123 9.43728C20.696 9.43728 21.165 9.90635 21.165 10.4793V15.0838C21.1652 16.2398 22.1025 17.1666 23.248 17.1668C24.6439 17.1668 24.6439 19.2498 23.248 19.2498H2.41504C1.02962 19.2498 1.02962 17.1668 2.41504 17.1668C3.57118 17.1668 4.49787 16.2399 4.49805 15.0838V9.87478C4.49822 5.27076 8.23839 1.54177 12.832 1.54177Z" fill="#909294"/>
<path fill-rule="evenodd" clip-rule="evenodd" d="M19.0739 7.38385C20.5114 7.38385 21.6781 6.21823 21.6781 4.77969C21.6781 3.34219 20.5114 2.17552 19.0739 2.17552C17.6354 2.17552 16.4697 3.34219 16.4697 4.77969C16.4697 6.21823 17.6354 7.38385 19.0739 7.38385Z" fill="#FF383B"/>
</svg>
