<svg width="31" height="30" viewBox="0 0 31 30" fill="none" xmlns="http://www.w3.org/2000/svg">
<path d="M15.4839 15.9751C15.3964 15.9626 15.2839 15.9626 15.1839 15.9751C12.9839 15.9001 11.2339 14.1001 11.2339 11.8876C11.2339 9.6251 13.0589 7.7876 15.3339 7.7876C17.5964 7.7876 19.4339 9.6251 19.4339 11.8876C19.4214 14.1001 17.6839 15.9001 15.4839 15.9751Z" stroke="#909294" stroke-width="1.5" stroke-linecap="round" stroke-linejoin="round"/>
<path d="M23.7592 24.2252C21.5342 26.2627 18.5842 27.5002 15.3342 27.5002C12.0842 27.5002 9.13418 26.2627 6.90918 24.2252C7.03418 23.0502 7.78418 21.9002 9.12168 21.0002C12.5467 18.7252 18.1467 18.7252 21.5467 21.0002C22.8842 21.9002 23.6342 23.0502 23.7592 24.2252Z" stroke="#909294" stroke-width="1.5" stroke-linecap="round" stroke-linejoin="round"/>
<path d="M15.334 27.5C22.2375 27.5 27.834 21.9036 27.834 15C27.834 8.09644 22.2375 2.5 15.334 2.5C8.43042 2.5 2.83398 8.09644 2.83398 15C2.83398 21.9036 8.43042 27.5 15.334 27.5Z" stroke="#909294" stroke-width="1.5" stroke-linecap="round" stroke-linejoin="round"/>
</svg>
