<svg width="30" height="31" viewBox="0 0 30 31" fill="none" xmlns="http://www.w3.org/2000/svg">
<path d="M15.1497 16.4751C15.0622 16.4626 14.9497 16.4626 14.8497 16.4751C12.6497 16.4001 10.8997 14.6001 10.8997 12.3876C10.8997 10.1251 12.7247 8.2876 14.9997 8.2876C17.2622 8.2876 19.0997 10.1251 19.0997 12.3876C19.0872 14.6001 17.3497 16.4001 15.1497 16.4751Z" stroke="#909294" stroke-width="1.5" stroke-linecap="round" stroke-linejoin="round"/>
<path d="M23.425 24.7252C21.2 26.7627 18.25 28.0002 15 28.0002C11.75 28.0002 8.80001 26.7627 6.57501 24.7252C6.70001 23.5502 7.45001 22.4002 8.78751 21.5002C12.2125 19.2252 17.8125 19.2252 21.2125 21.5002C22.55 22.4002 23.3 23.5502 23.425 24.7252Z" stroke="#909294" stroke-width="1.5" stroke-linecap="round" stroke-linejoin="round"/>
<path d="M14.9999 28C21.9035 28 27.4999 22.4036 27.4999 15.5C27.4999 8.59644 21.9035 3 14.9999 3C8.09638 3 2.49994 8.59644 2.49994 15.5C2.49994 22.4036 8.09638 28 14.9999 28Z" stroke="#909294" stroke-width="1.5" stroke-linecap="round" stroke-linejoin="round"/>
</svg>
