<svg width="22" height="23" viewBox="0 0 22 23" fill="none" xmlns="http://www.w3.org/2000/svg">
<path fill-rule="evenodd" clip-rule="evenodd" d="M8.43002 7.45996C8.24063 7.45996 8.02002 7.63681 8.02002 7.92996C8.02002 8.18192 8.07324 8.24843 8.07866 8.25521C8.0786 8.25513 8.07875 8.25532 8.07866 8.25521C8.0902 8.26984 8.13387 8.31679 8.31921 8.38257L10.7251 9.22464C11.0143 9.32922 11.3666 9.49828 11.6322 9.83807C11.905 10.1871 12.01 10.6159 12.01 11.09C12.01 12.1368 11.1906 13.06 10.1 13.06H8.60002C7.42055 13.06 6.52002 12.058 6.52002 10.91C6.52002 10.4957 6.85581 10.16 7.27002 10.16C7.68423 10.16 8.02002 10.4957 8.02002 10.91C8.02002 11.3019 8.31948 11.56 8.60002 11.56H10.1C10.2894 11.56 10.51 11.3831 10.51 11.09C10.51 10.8375 10.4566 10.7697 10.4506 10.7621C10.4388 10.747 10.3963 10.7012 10.2183 10.6365L7.81963 9.79694C7.52598 9.69293 7.16958 9.52477 6.90115 9.18443C6.62502 8.83434 6.52002 8.40382 6.52002 7.92996C6.52002 6.88311 7.33941 5.95996 8.43002 5.95996H9.94015C11.1091 5.97576 12.02 6.94871 12.02 8.10996C12.02 8.52418 11.6842 8.85996 11.27 8.85996C10.8558 8.85996 10.52 8.52418 10.52 8.10996C10.52 7.73283 10.2334 7.46639 9.92388 7.45996H8.43002Z" fill="#909294"/>
<path fill-rule="evenodd" clip-rule="evenodd" d="M9.27002 11.6101C9.68423 11.6101 10.02 11.9459 10.02 12.3601V13.1001C10.02 13.5143 9.68423 13.8501 9.27002 13.8501C8.85581 13.8501 8.52002 13.5143 8.52002 13.1001V12.3601C8.52002 11.9459 8.85581 11.6101 9.27002 11.6101Z" fill="#909294"/>
<path fill-rule="evenodd" clip-rule="evenodd" d="M9.27002 5.16992C9.68423 5.16992 10.02 5.50571 10.02 5.91992V6.69992C10.02 7.11414 9.68423 7.44992 9.27002 7.44992C8.85581 7.44992 8.52002 7.11414 8.52002 6.69992V5.91992C8.52002 5.50571 8.85581 5.16992 9.27002 5.16992Z" fill="#909294"/>
<path fill-rule="evenodd" clip-rule="evenodd" d="M9.26002 2.26001C5.26148 2.26001 2.02002 5.50147 2.02002 9.50001C2.02002 13.4986 5.26148 16.74 9.26002 16.74C13.2586 16.74 16.5 13.4986 16.5 9.50001C16.5 5.50147 13.2586 2.26001 9.26002 2.26001ZM0.52002 9.50001C0.52002 4.67304 4.43305 0.76001 9.26002 0.76001C14.087 0.76001 18 4.67304 18 9.50001C18 14.327 14.087 18.24 9.26002 18.24C4.43305 18.24 0.52002 14.327 0.52002 9.50001Z" fill="#909294"/>
<path fill-rule="evenodd" clip-rule="evenodd" d="M18.5713 12.0718C18.8134 11.7357 19.2821 11.6594 19.6182 11.9014C21.0544 12.9354 22 14.6273 22 16.5401C22 19.6843 19.4442 22.2401 16.3 22.2401C14.3647 22.2401 12.6716 21.2821 11.6381 19.8237C11.3986 19.4858 11.4784 19.0176 11.8164 18.7781C12.1543 18.5386 12.6224 18.6185 12.8619 18.9564C13.6284 20.0381 14.8753 20.7401 16.3 20.7401C18.6158 20.7401 20.5 18.8559 20.5 16.5401C20.5 15.1329 19.8056 13.8847 18.7418 13.1187C18.4056 12.8767 18.3293 12.408 18.5713 12.0718Z" fill="#909294"/>
</svg>
