<svg width="22" height="23" viewBox="0 0 22 23" fill="none" xmlns="http://www.w3.org/2000/svg">
<path fill-rule="evenodd" clip-rule="evenodd" d="M8.43051 7.45996C8.24112 7.45996 8.02051 7.63681 8.02051 7.92996C8.02051 8.18192 8.07373 8.24843 8.07915 8.25521C8.07909 8.25513 8.07924 8.25532 8.07915 8.25521C8.09069 8.26984 8.13436 8.31679 8.3197 8.38257L10.7256 9.22464C11.0148 9.32922 11.367 9.49828 11.6326 9.83807C11.9055 10.1871 12.0105 10.6159 12.0105 11.09C12.0105 12.1368 11.1911 13.06 10.1005 13.06H8.60051C7.42104 13.06 6.52051 12.058 6.52051 10.91C6.52051 10.4957 6.85629 10.16 7.27051 10.16C7.68472 10.16 8.02051 10.4957 8.02051 10.91C8.02051 11.3019 8.31997 11.56 8.60051 11.56H10.1005C10.2899 11.56 10.5105 11.3831 10.5105 11.09C10.5105 10.8375 10.4571 10.7697 10.4511 10.7621C10.4393 10.747 10.3968 10.7012 10.2188 10.6365L7.82012 9.79694C7.52647 9.69293 7.17007 9.52477 6.90163 9.18443C6.62551 8.83434 6.52051 8.40382 6.52051 7.92996C6.52051 6.88311 7.33989 5.95996 8.43051 5.95996H9.94064C11.1096 5.97576 12.0205 6.94871 12.0205 8.10996C12.0205 8.52418 11.6847 8.85996 11.2705 8.85996C10.8563 8.85996 10.5205 8.52418 10.5205 8.10996C10.5205 7.73283 10.2339 7.46639 9.92437 7.45996H8.43051Z" fill="#909294"/>
<path fill-rule="evenodd" clip-rule="evenodd" d="M9.27051 11.6099C9.68472 11.6099 10.0205 11.9456 10.0205 12.3599V13.0999C10.0205 13.5141 9.68472 13.8499 9.27051 13.8499C8.85629 13.8499 8.52051 13.5141 8.52051 13.0999V12.3599C8.52051 11.9456 8.85629 11.6099 9.27051 11.6099Z" fill="#909294"/>
<path fill-rule="evenodd" clip-rule="evenodd" d="M9.27051 5.16992C9.68472 5.16992 10.0205 5.50571 10.0205 5.91992V6.69992C10.0205 7.11414 9.68472 7.44992 9.27051 7.44992C8.85629 7.44992 8.52051 7.11414 8.52051 6.69992V5.91992C8.52051 5.50571 8.85629 5.16992 9.27051 5.16992Z" fill="#909294"/>
<path fill-rule="evenodd" clip-rule="evenodd" d="M9.26051 2.25977C5.26197 2.25977 2.02051 5.50122 2.02051 9.49977C2.02051 13.4983 5.26197 16.7398 9.26051 16.7398C13.259 16.7398 16.5005 13.4983 16.5005 9.49977C16.5005 5.50122 13.259 2.25977 9.26051 2.25977ZM0.520508 9.49977C0.520508 4.6728 4.43354 0.759766 9.26051 0.759766C14.0875 0.759766 18.0005 4.6728 18.0005 9.49977C18.0005 14.3267 14.0875 18.2398 9.26051 18.2398C4.43354 18.2398 0.520508 14.3267 0.520508 9.49977Z" fill="#909294"/>
<path fill-rule="evenodd" clip-rule="evenodd" d="M18.5714 12.0716C18.8134 11.7354 19.2821 11.6591 19.6183 11.9012C21.0545 12.9352 22.0001 14.627 22.0001 16.5398C22.0001 19.684 19.4443 22.2398 16.3001 22.2398C14.3648 22.2398 12.6716 21.2818 11.6381 19.8235C11.3986 19.4855 11.4785 19.0174 11.8164 18.7779C12.1544 18.5384 12.6225 18.6182 12.862 18.9562C13.6285 20.0378 14.8753 20.7398 16.3001 20.7398C18.6158 20.7398 20.5001 18.8556 20.5001 16.5398C20.5001 15.1326 19.8057 13.8844 18.7418 13.1185C18.4057 12.8764 18.3294 12.4077 18.5714 12.0716Z" fill="#909294"/>
</svg>
