<svg width="11" height="13" viewBox="0 0 11 13" fill="none" xmlns="http://www.w3.org/2000/svg">
<path d="M7.66602 0.541504C7.96517 0.541504 8.20801 0.784342 8.20801 1.0835V1.62451H9.29102C10.1884 1.62451 10.9158 2.3522 10.916 3.24951V10.8325C10.916 11.73 10.1885 12.4575 9.29102 12.4575H1.70801C0.810545 12.4575 0.0830078 11.73 0.0830078 10.8325V3.24951C0.0831837 2.3522 0.810654 1.62451 1.70801 1.62451H2.79102V1.0835C2.79102 0.784342 3.03385 0.541504 3.33301 0.541504C3.63216 0.541504 3.875 0.784342 3.875 1.0835V1.62451H7.125V1.0835C7.125 0.78445 7.36701 0.54168 7.66602 0.541504ZM1.16602 10.8325C1.16602 11.1317 1.40885 11.3745 1.70801 11.3745H9.29102C9.59017 11.3745 9.83301 11.1317 9.83301 10.8325V5.9585H1.16602V10.8325ZM1.70801 2.70752C1.40896 2.70752 1.16619 2.95051 1.16602 3.24951V4.87451H9.83301V3.24951C9.83283 2.95051 9.59006 2.70752 9.29102 2.70752H8.20801V3.24951C8.20801 3.54867 7.96517 3.7915 7.66602 3.7915C7.36701 3.79133 7.125 3.54856 7.125 3.24951V2.70752H3.875V3.24951C3.875 3.54867 3.63216 3.7915 3.33301 3.7915C3.03385 3.7915 2.79102 3.54867 2.79102 3.24951V2.70752H1.70801Z" fill="#111111"/>
<mask id="mask0_345_28273" style="mask-type:luminance" maskUnits="userSpaceOnUse" x="0" y="0" width="11" height="13">
<path d="M7.66602 0.541504C7.96517 0.541504 8.20801 0.784342 8.20801 1.0835V1.62451H9.29102C10.1884 1.62451 10.9158 2.3522 10.916 3.24951V10.8325C10.916 11.73 10.1885 12.4575 9.29102 12.4575H1.70801C0.810545 12.4575 0.0830078 11.73 0.0830078 10.8325V3.24951C0.0831837 2.3522 0.810654 1.62451 1.70801 1.62451H2.79102V1.0835C2.79102 0.784342 3.03385 0.541504 3.33301 0.541504C3.63216 0.541504 3.875 0.784342 3.875 1.0835V1.62451H7.125V1.0835C7.125 0.78445 7.36701 0.54168 7.66602 0.541504ZM1.16602 10.8325C1.16602 11.1317 1.40885 11.3745 1.70801 11.3745H9.29102C9.59017 11.3745 9.83301 11.1317 9.83301 10.8325V5.9585H1.16602V10.8325ZM1.70801 2.70752C1.40896 2.70752 1.16619 2.95051 1.16602 3.24951V4.87451H9.83301V3.24951C9.83283 2.95051 9.59006 2.70752 9.29102 2.70752H8.20801V3.24951C8.20801 3.54867 7.96517 3.7915 7.66602 3.7915C7.36701 3.79133 7.125 3.54856 7.125 3.24951V2.70752H3.875V3.24951C3.875 3.54867 3.63216 3.7915 3.33301 3.7915C3.03385 3.7915 2.79102 3.54867 2.79102 3.24951V2.70752H1.70801Z" fill="white"/>
</mask>
<g mask="url(#mask0_345_28273)">
</g>
</svg>
