<svg width="33" height="34" viewBox="0 0 33 34" fill="none" xmlns="http://www.w3.org/2000/svg">
<path fill-rule="evenodd" clip-rule="evenodd" d="M23.6596 14.5456L15.983 22.2236C15.7244 22.4805 15.3747 22.6246 15.0102 22.6246C14.6457 22.6246 14.296 22.4805 14.0374 22.2236L9.34038 17.5266C9.21271 17.399 9.11145 17.2474 9.04236 17.0806C8.97327 16.9138 8.93771 16.735 8.93771 16.5545C8.93771 16.1899 9.08255 15.8402 9.34038 15.5824C9.5982 15.3246 9.94788 15.1797 10.3125 15.1797C10.6771 15.1797 11.0268 15.3246 11.2846 15.5824L15.0095 19.3073L21.7154 12.6014C21.843 12.4737 21.9946 12.3724 22.1614 12.3034C22.3282 12.2343 22.507 12.1987 22.6875 12.1987C22.868 12.1987 23.0468 12.2343 23.2136 12.3034C23.3804 12.3724 23.532 12.4737 23.6596 12.6014C23.7873 12.729 23.8886 12.8806 23.9576 13.0474C24.0267 13.2142 24.0623 13.393 24.0623 13.5735C24.0623 13.754 24.0267 13.9328 23.9576 14.0996C23.8886 14.2664 23.7873 14.418 23.6596 14.5456ZM16.5 1.875C8.14688 1.875 1.375 8.64688 1.375 17C1.375 25.3531 8.14688 32.125 16.5 32.125C24.8531 32.125 31.625 25.3531 31.625 17C31.625 8.64688 24.8531 1.875 16.5 1.875Z" fill="#8B95A1"/>
</svg>
