<svg width="12" height="12" viewBox="0 0 12 12" fill="none" xmlns="http://www.w3.org/2000/svg">
<path d="M8.16602 0.0415039C8.46517 0.0415039 8.70801 0.284342 8.70801 0.583496V1.12451H9.79102C10.6884 1.12451 11.4158 1.8522 11.416 2.74951V10.3325C11.416 11.23 10.6885 11.9575 9.79102 11.9575H2.20801C1.31055 11.9575 0.583008 11.23 0.583008 10.3325V2.74951C0.583184 1.8522 1.31065 1.12451 2.20801 1.12451H3.29102V0.583496C3.29102 0.284342 3.53385 0.041504 3.83301 0.0415039C4.13216 0.0415039 4.375 0.284342 4.375 0.583496V1.12451H7.625V0.583496C7.625 0.28445 7.86701 0.0416796 8.16602 0.0415039ZM1.66602 10.3325C1.66602 10.6317 1.90885 10.8745 2.20801 10.8745H9.79102C10.0902 10.8745 10.333 10.6317 10.333 10.3325V5.4585H1.66602V10.3325ZM2.20801 2.20752C1.90896 2.20752 1.66619 2.45051 1.66602 2.74951V4.37451H10.333V2.74951C10.3328 2.45051 10.0901 2.20752 9.79102 2.20752H8.70801V2.74951C8.70801 3.04867 8.46517 3.2915 8.16602 3.2915C7.86701 3.29133 7.625 3.04856 7.625 2.74951V2.20752H4.375V2.74951C4.375 3.04867 4.13216 3.2915 3.83301 3.2915C3.53385 3.2915 3.29102 3.04867 3.29102 2.74951V2.20752H2.20801Z" fill="#111111"/>
<mask id="mask0_420_15866" style="mask-type:luminance" maskUnits="userSpaceOnUse" x="0" y="0" width="12" height="12">
<path d="M8.16602 0.0415039C8.46517 0.0415039 8.70801 0.284342 8.70801 0.583496V1.12451H9.79102C10.6884 1.12451 11.4158 1.8522 11.416 2.74951V10.3325C11.416 11.23 10.6885 11.9575 9.79102 11.9575H2.20801C1.31055 11.9575 0.583008 11.23 0.583008 10.3325V2.74951C0.583184 1.8522 1.31065 1.12451 2.20801 1.12451H3.29102V0.583496C3.29102 0.284342 3.53385 0.041504 3.83301 0.0415039C4.13216 0.0415039 4.375 0.284342 4.375 0.583496V1.12451H7.625V0.583496C7.625 0.28445 7.86701 0.0416796 8.16602 0.0415039ZM1.66602 10.3325C1.66602 10.6317 1.90885 10.8745 2.20801 10.8745H9.79102C10.0902 10.8745 10.333 10.6317 10.333 10.3325V5.4585H1.66602V10.3325ZM2.20801 2.20752C1.90896 2.20752 1.66619 2.45051 1.66602 2.74951V4.37451H10.333V2.74951C10.3328 2.45051 10.0901 2.20752 9.79102 2.20752H8.70801V2.74951C8.70801 3.04867 8.46517 3.2915 8.16602 3.2915C7.86701 3.29133 7.625 3.04856 7.625 2.74951V2.20752H4.375V2.74951C4.375 3.04867 4.13216 3.2915 3.83301 3.2915C3.53385 3.2915 3.29102 3.04867 3.29102 2.74951V2.20752H2.20801Z" fill="white"/>
</mask>
<g mask="url(#mask0_420_15866)">
</g>
</svg>
