<svg width="34" height="33" viewBox="0 0 34 33" fill="none" xmlns="http://www.w3.org/2000/svg">
<path fill-rule="evenodd" clip-rule="evenodd" d="M24.1596 14.0456L16.483 21.7236C16.2244 21.9805 15.8747 22.1246 15.5102 22.1246C15.1457 22.1246 14.796 21.9805 14.5374 21.7236L9.84038 17.0266C9.71271 16.899 9.61145 16.7474 9.54236 16.5806C9.47327 16.4138 9.43771 16.235 9.43771 16.0545C9.43771 15.6899 9.58255 15.3402 9.84038 15.0824C10.0982 14.8246 10.4479 14.6797 10.8125 14.6797C11.1771 14.6797 11.5268 14.8246 11.7846 15.0824L15.5095 18.8073L22.2154 12.1014C22.343 11.9737 22.4946 11.8724 22.6614 11.8034C22.8282 11.7343 23.007 11.6987 23.1875 11.6987C23.368 11.6987 23.5468 11.7343 23.7136 11.8034C23.8804 11.8724 24.032 11.9737 24.1596 12.1014C24.2873 12.229 24.3886 12.3806 24.4576 12.5474C24.5267 12.7142 24.5623 12.893 24.5623 13.0735C24.5623 13.254 24.5267 13.4328 24.4576 13.5996C24.3886 13.7664 24.2873 13.918 24.1596 14.0456M17 1.375C8.64688 1.375 1.875 8.14688 1.875 16.5C1.875 24.8531 8.64688 31.625 17 31.625C25.3531 31.625 32.125 24.8531 32.125 16.5C32.125 8.14688 25.3531 1.375 17 1.375Z" fill="#8B95A1"/>
</svg>
