<svg width="34" height="31" viewBox="0 0 34 31" fill="none" xmlns="http://www.w3.org/2000/svg">
<path fill-rule="evenodd" clip-rule="evenodd" d="M24.6579 13.1706L16.4473 20.8486C16.1707 21.1055 15.7967 21.2496 15.4068 21.2496C15.017 21.2496 14.643 21.1055 14.3664 20.8486L9.34265 16.1516C9.20611 16.024 9.0978 15.8724 9.02391 15.7056C8.95001 15.5388 8.91198 15.36 8.91198 15.1795C8.91198 14.8149 9.0669 14.4652 9.34265 14.2074C9.61841 13.9496 9.99241 13.8047 10.3824 13.8047C10.7724 13.8047 11.1464 13.9496 11.4221 14.2074L15.4061 17.9323L22.5784 11.2264C22.7149 11.0987 22.877 10.9974 23.0554 10.9284C23.2338 10.8593 23.425 10.8237 23.6181 10.8237C23.8112 10.8237 24.0024 10.8593 24.1808 10.9284C24.3592 10.9974 24.5213 11.0987 24.6579 11.2264C24.7944 11.354 24.9027 11.5056 24.9766 11.6724C25.0505 11.8392 25.0886 12.018 25.0886 12.1985C25.0886 12.379 25.0505 12.5578 24.9766 12.7246C24.9027 12.8914 24.7944 13.043 24.6579 13.1706ZM17.0003 0.5C8.06614 0.5 0.823242 7.27188 0.823242 15.625C0.823242 23.9781 8.06614 30.75 17.0003 30.75C25.9344 30.75 33.1773 23.9781 33.1773 15.625C33.1773 7.27188 25.9344 0.5 17.0003 0.5Z" fill="#3C81D4"/>
</svg>
