<svg width="11" height="13" viewBox="0 0 11 13" fill="none" xmlns="http://www.w3.org/2000/svg">
<path d="M4.37793 8.21875H6.62207C8.74879 8.21875 10.5 10.0053 10.5 12.2461C10.4999 12.4022 10.3813 12.5 10.2705 12.5H0.729492C0.618669 12.5 0.500099 12.4022 0.5 12.2461C0.5 10.0053 2.25121 8.21875 4.37793 8.21875ZM5.5 0.5C6.19542 0.5 6.86626 0.785838 7.36328 1.2998C7.86064 1.81431 8.14258 2.51552 8.14258 3.25L8.12988 3.52344C8.06909 4.15678 7.79851 4.74997 7.36328 5.2002C6.86626 5.71416 6.19542 6 5.5 6C4.80458 6 4.13374 5.71416 3.63672 5.2002C3.13936 4.68569 2.85742 3.98448 2.85742 3.25L2.87012 2.97656C2.93091 2.34322 3.20149 1.75003 3.63672 1.2998C4.13374 0.785838 4.80458 0.5 5.5 0.5Z" stroke="#407CF4"/>
</svg>
