<svg width="116" height="115" viewBox="0 0 116 115" fill="none" xmlns="http://www.w3.org/2000/svg">
<g clip-path="url(#clip0_247_10867)">
<path d="M58 0C26.26 0 0.5 25.76 0.5 57.5C0.5 89.24 26.26 115 58 115C89.74 115 115.5 89.24 115.5 57.5C115.5 25.76 89.74 0 58 0ZM58 17.25C67.545 17.25 75.25 24.955 75.25 34.5C75.25 44.045 67.545 51.75 58 51.75C48.455 51.75 40.75 44.045 40.75 34.5C40.75 24.955 48.455 17.25 58 17.25ZM58 98.9C43.625 98.9 30.9175 91.54 23.5 80.385C23.6725 68.9425 46.5 62.675 58 62.675C69.4425 62.675 92.3275 68.9425 92.5 80.385C85.0825 91.54 72.375 98.9 58 98.9Z" fill="black" fill-opacity="0.24"/>
</g>
<defs>
<clipPath id="clip0_247_10867">
<rect width="115" height="115" fill="white" transform="translate(0.5)"/>
</clipPath>
</defs>
</svg>
