<svg width="1000" height="27" viewBox="0 0 1000 27" fill="none" xmlns="http://www.w3.org/2000/svg">
<path d="M0 2.61914C0 1.51457 0.895431 0.619141 2 0.619141H998C999.105 0.619141 1000 1.51457 1000 2.61914V16.1521H0V2.61914Z" fill="#E2E8F0"/>
<path d="M0 2.61914C0 1.51457 0.895431 0.619141 2 0.619141H998C999.105 0.619141 1000 1.51457 1000 2.61914V16.1521H0V2.61914Z" fill="url(#paint0_linear_205_42246)"/>
<path d="M0 16.1533H1000L975.269 20.4919C952.448 24.4955 929.322 26.5087 906.152 26.5087H91.8768C66.3982 26.5087 40.9778 24.0743 15.9623 19.2388L0 16.1533Z" fill="#E2E8F0"/>
<path d="M0 16.1533H1000L975.269 20.4919C952.448 24.4955 929.322 26.5087 906.152 26.5087H91.8768C66.3982 26.5087 40.9778 24.0743 15.9623 19.2388L0 16.1533Z" fill="url(#paint1_linear_205_42246)"/>
<path fill-rule="evenodd" clip-rule="evenodd" d="M417.69 0.619141C418.201 7.36567 424.654 12.7004 432.539 12.7004H568.452C576.337 12.7004 582.789 7.36567 583.3 0.619141H417.69Z" fill="#E2E8F0"/>
<path fill-rule="evenodd" clip-rule="evenodd" d="M417.69 0.619141C418.201 7.36567 424.654 12.7004 432.539 12.7004H568.452C576.337 12.7004 582.789 7.36567 583.3 0.619141H417.69Z" fill="url(#paint2_linear_205_42246)"/>
<defs>
<linearGradient id="paint0_linear_205_42246" x1="-1.92909e-10" y1="8.38582" x2="1000" y2="8.38582" gradientUnits="userSpaceOnUse">
<stop stop-color="#B7C2D0"/>
<stop offset="0.0295345" stop-color="#CAD4DB"/>
<stop offset="0.0625" stop-color="#BECCDE"/>
<stop offset="0.133609" stop-color="#B7C2D0"/>
<stop offset="0.865967" stop-color="#B7C2D0"/>
<stop offset="0.941937" stop-color="#BECCDE"/>
<stop offset="0.971275" stop-color="#CAD4DB"/>
<stop offset="0.996436" stop-color="#B7C2D0"/>
</linearGradient>
<linearGradient id="paint1_linear_205_42246" x1="500" y1="16.1533" x2="500" y2="26.5087" gradientUnits="userSpaceOnUse">
<stop stop-color="#D1DBE9"/>
<stop offset="1" stop-color="#AAB5C6"/>
</linearGradient>
<linearGradient id="paint2_linear_205_42246" x1="434.027" y1="7.95415" x2="569.94" y2="7.95415" gradientUnits="userSpaceOnUse">
<stop stop-color="#CFD9E7"/>
<stop offset="0.317518" stop-color="#CFD9E7" stop-opacity="0"/>
<stop offset="0.660584" stop-color="#CFD9E7" stop-opacity="0"/>
<stop offset="1" stop-color="#CFD9E7"/>
</linearGradient>
</defs>
</svg>
