<svg width="37" height="51" viewBox="0 0 37 51" fill="none" xmlns="http://www.w3.org/2000/svg">
<path d="M34.9713 7.89897H29.2793V4.36159C30.0653 4.36159 30.7023 3.56975 30.7023 2.59291C30.7023 1.61606 30.0653 0.824219 29.2793 0.824219H7.93452C7.14861 0.824219 6.51153 1.61606 6.51153 2.59291C6.51153 3.56975 7.14861 4.36159 7.93452 4.36159V7.89897H2.24257C1.45992 7.89897 0.81958 8.69488 0.81958 9.66766V11.4363C0.81958 17.671 4.23475 23.1097 9.10137 24.6219L9.62076 24.7811H9.62788C11.1431 27.7256 13.5762 29.8743 16.4287 30.6174C16.2929 33.1485 15.8167 35.6338 15.0133 37.9667H11.492C10.7093 37.9667 10.069 38.7626 10.069 39.7353V46.8101C9.28309 46.8101 8.64602 47.6019 8.64602 48.5788V50.3475H28.5679V48.5788C28.5679 47.6019 27.9308 46.8101 27.1449 46.8101V39.7353C27.1449 38.7626 26.5045 37.9667 25.7219 37.9667H22.2006C21.3973 35.6338 20.9209 33.1485 20.7852 30.6174C23.6377 29.8743 26.0707 27.7256 27.586 24.7811H27.5931L28.1125 24.6219C32.9791 23.1097 36.3943 17.671 36.3943 11.4363V9.66766C36.3943 8.69488 35.7539 7.89897 34.9713 7.89897ZM22.1644 42.3884C22.1644 42.8748 21.8442 43.2727 21.4529 43.2727H15.761C15.3696 43.2727 15.0495 42.8748 15.0495 42.3884C15.0495 41.902 15.3696 41.504 15.761 41.504H21.4529C21.8442 41.504 22.1644 41.902 22.1644 42.3884ZM3.66556 11.4363H7.93452V17.6268C7.93452 18.5995 8.0199 19.5369 8.17643 20.4478C5.45852 18.7941 3.66556 15.3275 3.66556 11.4363ZM21.2466 20.9077L18.6069 19.1832L15.9673 20.9077L16.4725 17.2553L14.338 14.6642L17.2907 14.1336L18.6069 10.8085L19.9232 14.1336L22.8759 14.6642L20.7414 17.2553L21.2466 20.9077ZM29.0374 20.4478C29.194 19.5369 29.2793 18.5995 29.2793 17.6268V11.4363H33.5483C33.5483 15.3275 31.7553 18.7941 29.0374 20.4478Z" fill="white"/>
</svg>
