<svg width="26" height="30" viewBox="0 0 26 30" fill="none" xmlns="http://www.w3.org/2000/svg">
<path d="M3.47057 0.180148L12.7353 12.6421C12.6726 12.6369 12.6054 12.6369 12.5383 12.6369C11.8581 12.6369 11.1877 12.7471 10.5406 12.9533L1.7829 1.36938L2.8168 0.153824C2.90635 0.0537909 3.02726 -0.00938778 3.14816 0.00114199C3.27354 0.00640688 3.38997 0.0695856 3.47057 0.180148ZM0.130068 3.31276C-0.0356132 3.50756 -0.044569 3.82345 0.112157 4.03405L7.88128 14.5112C8.04696 14.3585 8.2216 14.2111 8.40071 14.0742C8.7889 13.7771 9.19889 13.5299 9.62214 13.3232L1.14865 2.11515L0.130068 3.31276ZM22.2598 0.153824C22.1702 0.0537909 22.0493 -0.00412289 21.9239 0.00114199C21.803 0.00640688 21.6821 0.0748504 21.6015 0.185413L18.5162 4.39206L13.1114 11.5523L13.5234 12.1051L14.016 12.8054C14.2933 12.8687 14.564 12.9558 14.8311 13.055L23.2958 1.37191L22.2598 0.153824ZM24.9465 3.31276L23.9313 2.1191L15.7132 13.4619C16.0393 13.6394 16.3593 13.8357 16.6669 14.0689C16.846 14.2058 17.0206 14.348 17.1908 14.5059L24.9644 4.03405C25.1211 3.82345 25.1122 3.51282 24.9465 3.31276ZM19.0093 2.1071L20.5541 0.00114199H4.52753L6.0929 2.1071H19.0093ZM16.6589 5.26603L17.847 3.69146L18.2368 3.16008H6.87564L8.44101 5.26603H16.6589ZM15.6728 21.5872C15.6728 23.6194 14.2665 25.2726 12.5383 25.2726C10.8101 25.2726 9.40376 23.6194 9.40376 21.5872C9.40376 19.555 10.8101 17.9018 12.5383 17.9018C14.2665 17.9018 15.6728 19.555 15.6728 21.5872ZM16.1809 14.9544C15.3203 14.2971 14.3688 13.8907 13.3552 13.7467C13.0963 13.7084 12.8291 13.6899 12.5383 13.6899C11.2391 13.6899 9.97617 14.1287 8.88643 14.9593C6.96716 16.4249 5.82145 18.9026 5.82145 21.5872C5.82145 25.9418 8.8344 29.4845 12.5383 29.4845C16.2422 29.4845 19.2551 25.9418 19.2551 21.5872C19.2551 18.8936 18.1054 16.4135 16.1809 14.9544ZM12.5383 26.3256C10.3159 26.3256 8.50818 24.1998 8.50818 21.5872C8.50818 18.9745 10.3159 16.8488 12.5383 16.8488C14.7606 16.8488 16.5684 18.9745 16.5684 21.5872C16.5684 24.1998 14.7606 26.3256 12.5383 26.3256Z" fill="white"/>
</svg>
