<svg width="38" height="44" viewBox="0 0 38 44" fill="none" xmlns="http://www.w3.org/2000/svg">
<path d="M5.80045 0.721661L19.2593 18.8251C19.1682 18.8175 19.0706 18.8175 18.973 18.8175C17.985 18.8175 17.0111 18.9775 16.071 19.2772L3.34879 2.44925L4.85073 0.683419C4.98083 0.538103 5.15646 0.446323 5.3321 0.46162C5.51424 0.469268 5.68336 0.561047 5.80045 0.721661ZM0.947738 5.27238C0.707054 5.55536 0.694044 6.01426 0.921718 6.32019L12.2079 21.5402C12.4485 21.3184 12.7022 21.1043 12.9624 20.9054C13.5264 20.4738 14.122 20.1147 14.7368 19.8145L2.42743 3.53263L0.947738 5.27238ZM33.0954 0.683419C32.9653 0.538103 32.7896 0.453972 32.6075 0.46162C32.4318 0.469268 32.2562 0.568696 32.1391 0.729309L27.6572 6.84027L19.8057 17.2419L20.4041 18.045L21.1197 19.0622C21.5226 19.1543 21.9158 19.2807 22.3039 19.4249L34.6003 2.45292L33.0954 0.683419ZM36.9983 5.27238L35.5235 3.53836L23.5853 20.016C24.0589 20.2738 24.5238 20.559 24.9706 20.8978C25.2308 21.0966 25.4845 21.3031 25.7317 21.5326L37.0244 6.32019C37.252 6.01426 37.239 5.56301 36.9983 5.27238ZM28.3734 3.52093L30.6176 0.46162H7.33589L9.6099 3.52093H28.3734ZM24.959 8.10988L26.685 5.82252L27.2513 5.05058H10.747L13.021 8.10988H24.959ZM23.5265 31.8195C23.5265 34.7717 21.4836 37.1733 18.973 37.1733C16.4625 37.1733 14.4196 34.7717 14.4196 31.8195C14.4196 28.8673 16.4625 26.4657 18.973 26.4657C21.4836 26.4657 23.5265 28.8673 23.5265 31.8195ZM24.2647 22.1841C23.0145 21.2293 21.6322 20.6388 20.1597 20.4297C19.7836 20.374 19.3955 20.3471 18.973 20.3471C17.0857 20.3471 15.2511 20.9846 13.668 22.1912C10.8799 24.3202 9.21557 27.9196 9.21557 31.8195C9.21557 38.1454 13.5924 43.2919 18.973 43.2919C24.3536 43.2919 28.7305 38.1454 28.7305 31.8195C28.7305 27.9065 27.0604 24.3038 24.2647 22.1841ZM18.973 38.7029C15.7447 38.7029 13.1186 35.6149 13.1186 31.8195C13.1186 28.0241 15.7447 24.9361 18.973 24.9361C22.2014 24.9361 24.8275 28.0241 24.8275 31.8195C24.8275 35.6149 22.2014 38.7029 18.973 38.7029Z" fill="white"/>
</svg>
