<svg width="26" height="31" viewBox="0 0 26 31" fill="none" xmlns="http://www.w3.org/2000/svg">
<path d="M3.59837 0.189408L13.2043 13.2919C13.1393 13.2864 13.0696 13.2864 13 13.2864C12.2948 13.2864 11.5997 13.4023 10.9288 13.6191L1.84855 1.43977L2.92053 0.16173C3.01338 0.0565557 3.13874 -0.00987031 3.26409 0.00120069C3.39409 0.00673619 3.5148 0.0731623 3.59837 0.189408ZM0.134858 3.48303C-0.0369247 3.68784 -0.0462102 4.01997 0.116287 4.24139L8.17151 15.257C8.34329 15.0965 8.52436 14.9415 8.71007 14.7976C9.11255 14.4852 9.53765 14.2253 9.97648 14.008L1.19095 2.22387L0.134858 3.48303ZM23.0795 0.16173C22.9866 0.0565557 22.8613 -0.00433481 22.7313 0.00120069C22.6059 0.00673619 22.4806 0.0786976 22.397 0.194943L19.1981 4.61781L13.5943 12.1461L14.0214 12.7273L14.5321 13.4635C14.8197 13.5302 15.1003 13.6217 15.3773 13.726L24.1536 1.44242L23.0795 0.16173ZM25.8651 3.48303L24.8125 2.22802L16.2919 14.1539C16.6299 14.3405 16.9617 14.5469 17.2806 14.7921C17.4664 14.936 17.6474 15.0854 17.8238 15.2515L25.8837 4.24139C26.0462 4.01997 26.0369 3.69338 25.8651 3.48303ZM19.7093 2.2154L21.311 0.00120069H4.69425L6.31728 2.2154H19.7093ZM17.2723 5.5367L18.5042 3.8812L18.9084 3.3225H7.12883L8.75186 5.5367H17.2723ZM16.2499 22.6967C16.2499 24.8334 14.7918 26.5716 13 26.5716C11.2082 26.5716 9.75005 24.8334 9.75005 22.6967C9.75005 20.5601 11.2082 18.8219 13 18.8219C14.7918 18.8219 16.2499 20.5601 16.2499 22.6967ZM16.7768 15.7231C15.8845 15.032 14.8979 14.6046 13.847 14.4533C13.5785 14.413 13.3015 14.3935 13 14.3935C11.6529 14.3935 10.3435 14.8549 9.21367 15.7282C7.22373 17.2691 6.03583 19.8741 6.03583 22.6967C6.03583 27.2752 9.15973 31 13 31C16.8403 31 19.9642 27.2752 19.9642 22.6967C19.9642 19.8647 18.7722 17.2572 16.7768 15.7231ZM13 27.6787C10.6958 27.6787 8.8215 25.4437 8.8215 22.6967C8.8215 19.9498 10.6958 17.7148 13 17.7148C15.3042 17.7148 17.1785 19.9498 17.1785 22.6967C17.1785 25.4437 15.3042 27.6787 13 27.6787Z" fill="white"/>
</svg>
