<svg width="38" height="44" viewBox="0 0 38 44" fill="none" xmlns="http://www.w3.org/2000/svg">
<path d="M5.80058 0.721661L19.2594 18.8251C19.1683 18.8175 19.0707 18.8175 18.9732 18.8175C17.9851 18.8175 17.0112 18.9775 16.0712 19.2772L3.34891 2.44925L4.85085 0.683419C4.98095 0.538103 5.15658 0.446323 5.33222 0.46162C5.51436 0.469268 5.68349 0.561047 5.80058 0.721661ZM0.94786 5.27238C0.707176 5.55536 0.694166 6.01426 0.92184 6.32019L12.208 21.5402C12.4487 21.3184 12.7024 21.1043 12.9626 20.9054C13.5265 20.4738 14.1221 20.1147 14.7369 19.8145L2.42755 3.53263L0.94786 5.27238ZM33.0955 0.683419C32.9654 0.538103 32.7897 0.453972 32.6076 0.46162C32.432 0.469268 32.2563 0.568696 32.1392 0.729309L27.6573 6.84027L19.8058 17.2419L20.4043 18.045L21.1198 19.0622C21.5227 19.1543 21.916 19.2807 22.304 19.4249L34.6005 2.45292L33.0955 0.683419ZM36.9985 5.27238L35.5237 3.53836L23.5854 20.016C24.059 20.2738 24.5239 20.559 24.9708 20.8978C25.231 21.0966 25.4846 21.3031 25.7318 21.5326L37.0245 6.32019C37.2522 6.01426 37.2391 5.56301 36.9985 5.27238ZM28.3735 3.52093L30.6177 0.46162H7.33601L9.61002 3.52093H28.3735ZM24.9591 8.10988L26.6851 5.82252L27.2514 5.05058H10.7471L13.0211 8.10988H24.9591ZM23.5266 31.8195C23.5266 34.7717 21.4837 37.1733 18.9732 37.1733C16.4626 37.1733 14.4197 34.7717 14.4197 31.8195C14.4197 28.8673 16.4626 26.4657 18.9732 26.4657C21.4837 26.4657 23.5266 28.8673 23.5266 31.8195ZM24.2648 22.1841C23.0146 21.2293 21.6323 20.6388 20.1599 20.4297C19.7837 20.374 19.3956 20.3471 18.9732 20.3471C17.0858 20.3471 15.2512 20.9846 13.6682 22.1912C10.8801 24.3202 9.21569 27.9196 9.21569 31.8195C9.21569 38.1454 13.5926 43.2919 18.9732 43.2919C24.3538 43.2919 28.7306 38.1454 28.7306 31.8195C28.7306 27.9065 27.0605 24.3038 24.2648 22.1841ZM18.9732 38.7029C15.7448 38.7029 13.1187 35.6149 13.1187 31.8195C13.1187 28.0241 15.7448 24.9361 18.9732 24.9361C22.2015 24.9361 24.8276 28.0241 24.8276 31.8195C24.8276 35.6149 22.2015 38.7029 18.9732 38.7029Z" fill="white"/>
</svg>
