<svg width="36" height="42" viewBox="0 0 36 42" fill="none" xmlns="http://www.w3.org/2000/svg">
<path d="M4.98236 0.2511L18.2829 17.6213C18.1929 17.614 18.0964 17.614 18 17.614C17.0236 17.614 16.0611 17.7676 15.1321 18.0551L2.55954 1.90872L4.0438 0.214408C4.17237 0.0749766 4.34594 -0.0130852 4.51951 0.00159177C4.69951 0.00893026 4.86665 0.0969922 4.98236 0.2511ZM0.186727 4.6175C-0.0511265 4.88902 -0.0639834 5.32933 0.161013 5.62287L11.3144 20.2265C11.5523 20.0136 11.803 19.8082 12.0601 19.6174C12.6174 19.2033 13.206 18.8586 13.8136 18.5706L1.64901 2.94821L0.186727 4.6175ZM31.9562 0.214408C31.8276 0.0749766 31.6541 -0.00574671 31.4741 0.00159177C31.3005 0.00893026 31.1269 0.104331 31.0112 0.258439L26.582 6.12189L18.8228 16.1022L19.4143 16.8728L20.1214 17.8488C20.5196 17.9371 20.9082 18.0585 21.2916 18.1968L33.4435 1.91224L31.9562 0.214408ZM35.8133 4.6175L34.3558 2.95372L22.558 18.764C23.026 19.0114 23.4855 19.285 23.927 19.61C24.1842 19.8008 24.4349 19.999 24.6792 20.2191L35.839 5.62287C36.064 5.32933 36.0511 4.89636 35.8133 4.6175ZM27.2898 2.93699L29.5076 0.00159177H6.49973L8.747 2.93699H27.2898ZM23.9155 7.34008L25.6212 5.14536L26.1809 4.40468H9.87069L12.118 7.34008H23.9155ZM22.4999 30.0894C22.4999 32.922 20.481 35.2263 18 35.2263C15.519 35.2263 13.5001 32.922 13.5001 30.0894C13.5001 27.2568 15.519 24.9525 18 24.9525C20.481 24.9525 22.4999 27.2568 22.4999 30.0894ZM23.2294 20.8443C21.9939 19.9281 20.6279 19.3615 19.1727 19.1609C18.8011 19.1075 18.4175 19.0817 18 19.0817C16.1348 19.0817 14.3218 19.6933 12.7574 20.851C10.0021 22.8939 8.3573 26.3474 8.3573 30.0894C8.3573 36.1591 12.6827 41.0971 18 41.0971C23.3173 41.0971 27.6427 36.1591 27.6427 30.0894C27.6427 26.3349 25.9923 22.8781 23.2294 20.8443ZM18 36.694C14.8096 36.694 12.2144 33.731 12.2144 30.0894C12.2144 26.4477 14.8096 23.4848 18 23.4848C21.1904 23.4848 23.7856 26.4477 23.7856 30.0894C23.7856 33.731 21.1904 36.694 18 36.694Z" fill="white"/>
</svg>
