<svg width="26" height="26" viewBox="0 0 26 26" fill="none" xmlns="http://www.w3.org/2000/svg">
<path d="M14.6377 21.3347C15.4397 21.3347 15.942 22.2044 15.5391 22.8992C14.9797 23.8627 13.9505 24.4568 12.8359 24.4568C11.7214 24.4568 10.6922 23.8627 10.1328 22.8992C9.72993 22.2044 10.2311 21.3347 11.0342 21.3347H14.6377ZM12.832 1.54175C13.1131 1.54176 13.3837 1.55253 13.6543 1.58374C13.696 1.58374 13.7279 1.59351 13.7695 1.59351C14.3423 1.66656 14.748 2.18767 14.6855 2.7605C14.6126 3.28131 14.165 3.67749 13.6338 3.67749C13.5912 3.67749 13.561 3.6668 13.5195 3.66675C13.4987 3.66675 13.4671 3.65601 13.4463 3.65601C13.2485 3.63519 13.0402 3.62477 12.832 3.62476C9.38422 3.62476 6.58221 6.42699 6.58203 9.87476V15.0837C6.58197 15.844 6.38341 16.5523 6.0293 17.1667H19.6445C19.2904 16.5523 19.0821 15.844 19.082 15.0837V10.4792C19.082 9.90644 19.5503 9.43743 20.123 9.43726C20.696 9.43726 21.165 9.90633 21.165 10.4792V15.0837C21.1652 16.2397 22.1025 17.1666 23.248 17.1667C24.6439 17.1667 24.6439 19.2498 23.248 19.2498H2.41504C1.02962 19.2498 1.02962 17.1667 2.41504 17.1667C3.57118 17.1667 4.49787 16.2398 4.49805 15.0837V9.87476C4.49822 5.27074 8.23839 1.54175 12.832 1.54175Z" fill="#909294"/>
<path fill-rule="evenodd" clip-rule="evenodd" d="M19.0739 7.38387C20.5114 7.38387 21.6781 6.21825 21.6781 4.7797C21.6781 3.3422 20.5114 2.17554 19.0739 2.17554C17.6354 2.17554 16.4697 3.3422 16.4697 4.7797C16.4697 6.21825 17.6354 7.38387 19.0739 7.38387" fill="#FF383B"/>
</svg>
