<svg width="26" height="26" viewBox="0 0 26 26" fill="none" xmlns="http://www.w3.org/2000/svg">
<path d="M14.6367 21.3347C15.4387 21.3347 15.941 22.2044 15.5381 22.8992C14.9787 23.8627 13.9495 24.4568 12.835 24.4568C11.7204 24.4568 10.6912 23.8627 10.1318 22.8992C9.72896 22.2044 10.2302 21.3347 11.0332 21.3347H14.6367ZM12.8311 1.54178C13.1121 1.54179 13.3827 1.55256 13.6533 1.58377C13.695 1.58377 13.7269 1.59354 13.7686 1.59354C14.3413 1.66659 14.7471 2.18771 14.6846 2.76053C14.6116 3.28134 14.164 3.67752 13.6328 3.67752C13.5902 3.67752 13.5601 3.66683 13.5186 3.66678C13.4977 3.66678 13.4661 3.65604 13.4453 3.65604C13.2475 3.63522 13.0393 3.6248 12.8311 3.62479C9.38325 3.62479 6.58123 6.42702 6.58105 9.87479V15.0838C6.581 15.8441 6.38244 16.5523 6.02832 17.1668H19.6436C19.2894 16.5523 19.0811 15.8441 19.0811 15.0838V10.4793C19.0811 9.90647 19.5493 9.43746 20.1221 9.43729C20.695 9.43729 21.1641 9.90636 21.1641 10.4793V15.0838C21.1642 16.2398 22.1015 17.1666 23.2471 17.1668C24.6429 17.1668 24.6429 19.2498 23.2471 19.2498H2.41406C1.02865 19.2498 1.02865 17.1668 2.41406 17.1668C3.5702 17.1668 4.4969 16.2399 4.49707 15.0838V9.87479C4.49725 5.27077 8.23741 1.54178 12.8311 1.54178Z" fill="#909294"/>
<path fill-rule="evenodd" clip-rule="evenodd" d="M19.0749 7.38384C20.5124 7.38384 21.679 6.21822 21.679 4.77967C21.679 3.34217 20.5124 2.17551 19.0749 2.17551C17.6363 2.17551 16.4707 3.34217 16.4707 4.77967C16.4707 6.21822 17.6363 7.38384 19.0749 7.38384Z" fill="#FF383B"/>
</svg>
