<svg width="21" height="20" viewBox="0 0 21 20" fill="none" xmlns="http://www.w3.org/2000/svg">
<path d="M10.5443 12.9166C12.3859 12.9166 13.8776 11.425 13.8776 9.58329V4.99996C13.8776 3.15829 12.3859 1.66663 10.5443 1.66663C8.7026 1.66663 7.21094 3.15829 7.21094 4.99996V9.58329C7.21094 11.425 8.7026 12.9166 10.5443 12.9166Z" stroke="#676767" stroke-width="1.5" stroke-linecap="round" stroke-linejoin="round"/>
<path d="M4.16992 8.04163V9.45829C4.16992 12.975 7.02826 15.8333 10.5449 15.8333C14.0616 15.8333 16.9199 12.975 16.9199 9.45829V8.04163" stroke="#676767" stroke-width="1.5" stroke-linecap="round" stroke-linejoin="round"/>
<path d="M9.38672 5.35847C10.1367 5.08347 10.9534 5.08347 11.7034 5.35847" stroke="#676767" stroke-width="1.5" stroke-linecap="round" stroke-linejoin="round"/>
<path d="M9.87695 7.1251C10.3186 7.00843 10.777 7.00843 11.2186 7.1251" stroke="#676767" stroke-width="1.5" stroke-linecap="round" stroke-linejoin="round"/>
<path d="M10.5449 15.8334V18.3334" stroke="#676767" stroke-width="1.5" stroke-linecap="round" stroke-linejoin="round"/>
</svg>
