<svg width="21" height="20" viewBox="0 0 21 20" fill="none" xmlns="http://www.w3.org/2000/svg">
<path d="M10.5443 12.9167C12.3859 12.9167 13.8776 11.425 13.8776 9.58335V5.00002C13.8776 3.15835 12.3859 1.66669 10.5443 1.66669C8.7026 1.66669 7.21094 3.15835 7.21094 5.00002V9.58335C7.21094 11.425 8.7026 12.9167 10.5443 12.9167Z" stroke="#676767" stroke-width="1.5" stroke-linecap="round" stroke-linejoin="round"/>
<path d="M4.16992 8.04156V9.45823C4.16992 12.9749 7.02826 15.8332 10.5449 15.8332C14.0616 15.8332 16.9199 12.9749 16.9199 9.45823V8.04156" stroke="#676767" stroke-width="1.5" stroke-linecap="round" stroke-linejoin="round"/>
<path d="M9.38672 5.35841C10.1367 5.08341 10.9534 5.08341 11.7034 5.35841" stroke="#676767" stroke-width="1.5" stroke-linecap="round" stroke-linejoin="round"/>
<path d="M9.87695 7.12504C10.3186 7.00837 10.777 7.00837 11.2186 7.12504" stroke="#676767" stroke-width="1.5" stroke-linecap="round" stroke-linejoin="round"/>
<path d="M10.5449 15.8333V18.3333" stroke="#676767" stroke-width="1.5" stroke-linecap="round" stroke-linejoin="round"/>
</svg>
