<svg width="31" height="30" viewBox="0 0 31 30" fill="none" xmlns="http://www.w3.org/2000/svg">
<path d="M15.4844 15.9751C15.3969 15.9626 15.2844 15.9626 15.1844 15.9751C12.9844 15.9001 11.2344 14.1001 11.2344 11.8876C11.2344 9.6251 13.0594 7.7876 15.3344 7.7876C17.5969 7.7876 19.4344 9.6251 19.4344 11.8876C19.4219 14.1001 17.6844 15.9001 15.4844 15.9751Z" stroke="#909294" stroke-width="1.5" stroke-linecap="round" stroke-linejoin="round"/>
<path d="M23.7582 24.2252C21.5332 26.2627 18.5832 27.5002 15.3332 27.5002C12.0832 27.5002 9.1332 26.2627 6.9082 24.2252C7.0332 23.0502 7.7832 21.9002 9.1207 21.0002C12.5457 18.7252 18.1457 18.7252 21.5457 21.0002C22.8832 21.9002 23.6332 23.0502 23.7582 24.2252Z" stroke="#909294" stroke-width="1.5" stroke-linecap="round" stroke-linejoin="round"/>
<path d="M15.334 27.5C22.2375 27.5 27.834 21.9036 27.834 15C27.834 8.09644 22.2375 2.5 15.334 2.5C8.43042 2.5 2.83398 8.09644 2.83398 15C2.83398 21.9036 8.43042 27.5 15.334 27.5Z" stroke="#909294" stroke-width="1.5" stroke-linecap="round" stroke-linejoin="round"/>
</svg>
