<svg width="91" height="90" viewBox="0 0 91 90" fill="none" xmlns="http://www.w3.org/2000/svg">
<path d="M45.5 0C20.66 0 0.5 20.16 0.5 45C0.5 69.84 20.66 90 45.5 90C70.34 90 90.5 69.84 90.5 45C90.5 20.16 70.34 0 45.5 0ZM45.5 13.5C52.97 13.5 59 19.53 59 27C59 34.47 52.97 40.5 45.5 40.5C38.03 40.5 32 34.47 32 27C32 19.53 38.03 13.5 45.5 13.5ZM45.5 77.4C34.25 77.4 24.305 71.64 18.5 62.91C18.635 53.955 36.5 49.05 45.5 49.05C54.455 49.05 72.365 53.955 72.5 62.91C66.695 71.64 56.75 77.4 45.5 77.4Z" fill="black" fill-opacity="0.24"/>
</svg>
