<svg width="115" height="115" viewBox="0 0 115 115" fill="none" xmlns="http://www.w3.org/2000/svg">
<g clip-path="url(#clip0_215_24570)">
<path d="M57.5 0C25.76 0 0 25.76 0 57.5C0 89.24 25.76 115 57.5 115C89.24 115 115 89.24 115 57.5C115 25.76 89.24 0 57.5 0ZM57.5 17.25C67.045 17.25 74.75 24.955 74.75 34.5C74.75 44.045 67.045 51.75 57.5 51.75C47.955 51.75 40.25 44.045 40.25 34.5C40.25 24.955 47.955 17.25 57.5 17.25ZM57.5 98.9C43.125 98.9 30.4175 91.54 23 80.385C23.1725 68.9425 46 62.675 57.5 62.675C68.9425 62.675 91.8275 68.9425 92 80.385C84.5825 91.54 71.875 98.9 57.5 98.9Z" fill="black" fill-opacity="0.24"/>
</g>
<defs>
<clipPath id="clip0_215_24570">
<rect width="115" height="115" fill="white"/>
</clipPath>
</defs>
</svg>
