<svg width="13" height="14" viewBox="0 0 13 14" fill="none" xmlns="http://www.w3.org/2000/svg">
<path d="M9 0.0371094C9.34518 0.0371094 9.625 0.316931 9.625 0.662109V1.28711H10.875C11.9105 1.28711 12.75 2.12658 12.75 3.16211V11.9121C12.75 12.9476 11.9105 13.7871 10.875 13.7871H2.125C1.08947 13.7871 0.25 12.9476 0.25 11.9121V3.16211C0.25 2.12658 1.08947 1.28711 2.125 1.28711H3.375V0.662109C3.375 0.316931 3.65482 0.0371094 4 0.0371094C4.34518 0.0371094 4.625 0.316931 4.625 0.662109V1.28711H8.375V0.662109C8.375 0.316931 8.65482 0.0371094 9 0.0371094ZM1.5 11.9121C1.5 12.2573 1.77982 12.5371 2.125 12.5371H10.875C11.2202 12.5371 11.5 12.2573 11.5 11.9121V6.28711H1.5V11.9121ZM2.125 2.53711C1.77982 2.53711 1.5 2.81693 1.5 3.16211V5.03711H11.5V3.16211C11.5 2.81693 11.2202 2.53711 10.875 2.53711H9.625V3.16211C9.625 3.50729 9.34518 3.78711 9 3.78711C8.65482 3.78711 8.375 3.50729 8.375 3.16211V2.53711H4.625V3.16211C4.625 3.50729 4.34518 3.78711 4 3.78711C3.65482 3.78711 3.375 3.50729 3.375 3.16211V2.53711H2.125Z" fill="#111111"/>
<mask id="mask0_270_25406" style="mask-type:luminance" maskUnits="userSpaceOnUse" x="0" y="0" width="13" height="14">
<path d="M9 0.0371094C9.34518 0.0371094 9.625 0.316931 9.625 0.662109V1.28711H10.875C11.9105 1.28711 12.75 2.12658 12.75 3.16211V11.9121C12.75 12.9476 11.9105 13.7871 10.875 13.7871H2.125C1.08947 13.7871 0.25 12.9476 0.25 11.9121V3.16211C0.25 2.12658 1.08947 1.28711 2.125 1.28711H3.375V0.662109C3.375 0.316931 3.65482 0.0371094 4 0.0371094C4.34518 0.0371094 4.625 0.316931 4.625 0.662109V1.28711H8.375V0.662109C8.375 0.316931 8.65482 0.0371094 9 0.0371094ZM1.5 11.9121C1.5 12.2573 1.77982 12.5371 2.125 12.5371H10.875C11.2202 12.5371 11.5 12.2573 11.5 11.9121V6.28711H1.5V11.9121ZM2.125 2.53711C1.77982 2.53711 1.5 2.81693 1.5 3.16211V5.03711H11.5V3.16211C11.5 2.81693 11.2202 2.53711 10.875 2.53711H9.625V3.16211C9.625 3.50729 9.34518 3.78711 9 3.78711C8.65482 3.78711 8.375 3.50729 8.375 3.16211V2.53711H4.625V3.16211C4.625 3.50729 4.34518 3.78711 4 3.78711C3.65482 3.78711 3.375 3.50729 3.375 3.16211V2.53711H2.125Z" fill="white"/>
</mask>
<g mask="url(#mask0_270_25406)">
</g>
</svg>
