<svg width="20" height="21" viewBox="0 0 20 21" fill="none" xmlns="http://www.w3.org/2000/svg">
<path d="M5.83398 17.0781C5.83398 15.6974 7.69946 14.5781 10.0007 14.5781C12.3018 14.5781 14.1673 15.6974 14.1673 17.0781" stroke="#111111" stroke-width="2" stroke-linecap="round" stroke-linejoin="round"/>
<path d="M15 12.2871C16.4716 12.6729 17.5 13.5539 17.5 14.5791" stroke="#111111" stroke-width="2" stroke-linecap="round" stroke-linejoin="round"/>
<path d="M5 12.2871C3.52841 12.6729 2.5 13.5539 2.5 14.5791" stroke="#111111" stroke-width="2" stroke-linecap="round" stroke-linejoin="round"/>
<path d="M10 12.0781C11.3807 12.0781 12.5 10.9588 12.5 9.57813C12.5 8.19741 11.3807 7.07812 10 7.07812C8.61929 7.07812 7.5 8.19741 7.5 9.57813C7.5 10.9588 8.61929 12.0781 10 12.0781Z" stroke="#111111" stroke-width="2" stroke-linecap="round" stroke-linejoin="round"/>
<path d="M14.9993 8.94155C15.5108 8.48378 15.8327 7.81854 15.8327 7.07812C15.8327 5.69741 14.7134 4.57812 13.3327 4.57812C12.6924 4.57812 12.1083 4.81884 11.666 5.2147" stroke="#111111" stroke-width="2" stroke-linecap="round" stroke-linejoin="round"/>
<path d="M4.99935 8.94155C4.48789 8.48378 4.16602 7.81854 4.16602 7.07812C4.16602 5.69741 5.2853 4.57812 6.66602 4.57812C7.30631 4.57812 7.89039 4.81884 8.33268 5.2147" stroke="#111111" stroke-width="2" stroke-linecap="round" stroke-linejoin="round"/>
</svg>
