<svg width="15" height="19" viewBox="0 0 15 19" fill="none" xmlns="http://www.w3.org/2000/svg">
<path d="M7.49902 0.501953C11.6407 0.501953 14.9989 3.85928 14.999 8.00098C14.9989 10.5293 13.6474 13.0081 11.4189 15.3604C10.6549 16.1668 9.83807 16.9015 9.02148 17.5518C8.73522 17.7797 8.46843 17.982 8.22852 18.1553C8.08247 18.2607 7.97532 18.3338 7.91504 18.374C7.6632 18.5418 7.33483 18.5418 7.08301 18.374C7.02267 18.3338 6.91611 18.2604 6.77051 18.1553C6.53059 17.982 6.2638 17.7797 5.97754 17.5518C5.16091 16.9015 4.34413 16.1668 3.58008 15.3604C1.3516 13.0081 9.77609e-05 10.5294 0 8.00098C0.000126411 3.85941 3.35747 0.502154 7.49902 0.501953ZM7.5 2.00098C4.18657 2.00098 1.50098 4.68754 1.50098 8.00098C1.50117 10.0657 2.68023 12.2279 4.66992 14.3281C5.38202 15.0798 6.14716 15.7688 6.91211 16.3779C7.12084 16.5441 7.31837 16.6949 7.5 16.8291C7.68163 16.6949 7.87915 16.5441 8.08789 16.3779C8.85284 15.7688 9.61797 15.0798 10.3301 14.3281C12.3198 12.2279 13.4998 10.0657 13.5 8.00098C13.5 4.68754 10.8134 2.00098 7.5 2.00098ZM7.49805 5.00098C9.15477 5.00098 10.498 6.34426 10.498 8.00098C10.4979 9.6576 9.1547 11.001 7.49805 11.001C5.84143 11.0009 4.49816 9.65758 4.49805 8.00098C4.49805 6.34428 5.84135 5.00101 7.49805 5.00098ZM7.49805 6.50098C6.66983 6.50098 5.99828 7.17184 5.99805 8C5.99805 8.82836 6.66969 9.5 7.49805 9.5C8.32627 9.49984 8.99805 8.82826 8.99805 8C8.99781 7.17194 8.32613 6.50114 7.49805 6.50098Z" fill="#C14440"/>
<mask id="mask0_271_25661" style="mask-type:luminance" maskUnits="userSpaceOnUse" x="0" y="0" width="15" height="19">
<path d="M7.49902 0.501953C11.6407 0.501953 14.9989 3.85928 14.999 8.00098C14.9989 10.5293 13.6474 13.0081 11.4189 15.3604C10.6549 16.1668 9.83807 16.9015 9.02148 17.5518C8.73522 17.7797 8.46843 17.982 8.22852 18.1553C8.08247 18.2607 7.97532 18.3338 7.91504 18.374C7.6632 18.5418 7.33483 18.5418 7.08301 18.374C7.02267 18.3338 6.91611 18.2604 6.77051 18.1553C6.53059 17.982 6.2638 17.7797 5.97754 17.5518C5.16091 16.9015 4.34413 16.1668 3.58008 15.3604C1.3516 13.0081 9.77609e-05 10.5294 0 8.00098C0.000126411 3.85941 3.35747 0.502154 7.49902 0.501953ZM7.5 2.00098C4.18657 2.00098 1.50098 4.68754 1.50098 8.00098C1.50117 10.0657 2.68023 12.2279 4.66992 14.3281C5.38202 15.0798 6.14716 15.7688 6.91211 16.3779C7.12084 16.5441 7.31837 16.6949 7.5 16.8291C7.68163 16.6949 7.87915 16.5441 8.08789 16.3779C8.85284 15.7688 9.61797 15.0798 10.3301 14.3281C12.3198 12.2279 13.4998 10.0657 13.5 8.00098C13.5 4.68754 10.8134 2.00098 7.5 2.00098ZM7.49805 5.00098C9.15477 5.00098 10.498 6.34426 10.498 8.00098C10.4979 9.6576 9.1547 11.001 7.49805 11.001C5.84143 11.0009 4.49816 9.65758 4.49805 8.00098C4.49805 6.34428 5.84135 5.00101 7.49805 5.00098ZM7.49805 6.50098C6.66983 6.50098 5.99828 7.17184 5.99805 8C5.99805 8.82836 6.66969 9.5 7.49805 9.5C8.32627 9.49984 8.99805 8.82826 8.99805 8C8.99781 7.17194 8.32613 6.50114 7.49805 6.50098Z" fill="white"/>
</mask>
<g mask="url(#mask0_271_25661)">
</g>
</svg>
