<svg width="13" height="16" viewBox="0 0 13 16" fill="none" xmlns="http://www.w3.org/2000/svg">
<path d="M6.5 0.412109C9.95178 0.412109 12.75 3.21033 12.75 6.66211C12.75 8.76927 11.6237 10.8345 9.7666 12.7949C9.12977 13.4671 8.44922 14.0801 7.76855 14.6221C7.52994 14.8121 7.3074 14.9796 7.10742 15.124C6.98561 15.212 6.89694 15.2741 6.84668 15.3076C6.63685 15.4474 6.36315 15.4474 6.15332 15.3076C6.10306 15.2741 6.01439 15.212 5.89258 15.124C5.6926 14.9796 5.47006 14.8121 5.23145 14.6221C4.55078 14.0801 3.87023 13.4671 3.2334 12.7949C1.37627 10.8345 0.25 8.76927 0.25 6.66211C0.25 3.21033 3.04822 0.412109 6.5 0.412109ZM6.5 1.66211C3.73858 1.66211 1.5 3.90069 1.5 6.66211C1.5 8.38298 2.48326 10.1851 4.1416 11.9355C4.73515 12.562 5.37315 13.1358 6.01074 13.6436C6.1847 13.7821 6.34863 13.9077 6.5 14.0195C6.65137 13.9077 6.8153 13.7821 6.98926 13.6436C7.62685 13.1358 8.26485 12.562 8.8584 11.9355C10.5167 10.1851 11.5 8.38298 11.5 6.66211C11.5 3.90069 9.26142 1.66211 6.5 1.66211ZM6.5 4.16211C7.88071 4.16211 9 5.2814 9 6.66211C9 8.04282 7.88071 9.16211 6.5 9.16211C5.11929 9.16211 4 8.04282 4 6.66211C4 5.2814 5.11929 4.16211 6.5 4.16211ZM6.5 5.41211C5.80964 5.41211 5.25 5.97175 5.25 6.66211C5.25 7.35247 5.80964 7.91211 6.5 7.91211C7.19036 7.91211 7.75 7.35247 7.75 6.66211C7.75 5.97175 7.19036 5.41211 6.5 5.41211Z" fill="#111111"/>
<mask id="mask0_270_25384" style="mask-type:luminance" maskUnits="userSpaceOnUse" x="0" y="0" width="13" height="16">
<path d="M6.5 0.412109C9.95178 0.412109 12.75 3.21033 12.75 6.66211C12.75 8.76927 11.6237 10.8345 9.7666 12.7949C9.12977 13.4671 8.44922 14.0801 7.76855 14.6221C7.52994 14.8121 7.3074 14.9796 7.10742 15.124C6.98561 15.212 6.89694 15.2741 6.84668 15.3076C6.63685 15.4474 6.36315 15.4474 6.15332 15.3076C6.10306 15.2741 6.01439 15.212 5.89258 15.124C5.6926 14.9796 5.47006 14.8121 5.23145 14.6221C4.55078 14.0801 3.87023 13.4671 3.2334 12.7949C1.37627 10.8345 0.25 8.76927 0.25 6.66211C0.25 3.21033 3.04822 0.412109 6.5 0.412109ZM6.5 1.66211C3.73858 1.66211 1.5 3.90069 1.5 6.66211C1.5 8.38298 2.48326 10.1851 4.1416 11.9355C4.73515 12.562 5.37315 13.1358 6.01074 13.6436C6.1847 13.7821 6.34863 13.9077 6.5 14.0195C6.65137 13.9077 6.8153 13.7821 6.98926 13.6436C7.62685 13.1358 8.26485 12.562 8.8584 11.9355C10.5167 10.1851 11.5 8.38298 11.5 6.66211C11.5 3.90069 9.26142 1.66211 6.5 1.66211ZM6.5 4.16211C7.88071 4.16211 9 5.2814 9 6.66211C9 8.04282 7.88071 9.16211 6.5 9.16211C5.11929 9.16211 4 8.04282 4 6.66211C4 5.2814 5.11929 4.16211 6.5 4.16211ZM6.5 5.41211C5.80964 5.41211 5.25 5.97175 5.25 6.66211C5.25 7.35247 5.80964 7.91211 6.5 7.91211C7.19036 7.91211 7.75 7.35247 7.75 6.66211C7.75 5.97175 7.19036 5.41211 6.5 5.41211Z" fill="white"/>
</mask>
<g mask="url(#mask0_270_25384)">
</g>
</svg>
