<svg width="15" height="14" viewBox="0 0 15 14" fill="none" xmlns="http://www.w3.org/2000/svg">
<path d="M7.5 0.0371094C11.297 0.0371094 14.375 3.11515 14.375 6.91211C14.375 10.7091 11.297 13.7871 7.5 13.7871C3.70304 13.7871 0.625 10.7091 0.625 6.91211C0.625 3.11515 3.70304 0.0371094 7.5 0.0371094ZM7.5 1.28711C4.3934 1.28711 1.875 3.80551 1.875 6.91211C1.875 10.0187 4.3934 12.5371 7.5 12.5371C10.6066 12.5371 13.125 10.0187 13.125 6.91211C13.125 3.80551 10.6066 1.28711 7.5 1.28711ZM7.5 2.53711C7.84518 2.53711 8.125 2.81693 8.125 3.16211V6.65332L9.81738 8.34473C10.0615 8.5888 10.0615 8.98541 9.81738 9.22949C9.57331 9.47357 9.17669 9.47357 8.93262 9.22949L7.05762 7.35449C6.94041 7.23728 6.875 7.07787 6.875 6.91211V3.16211C6.875 2.81693 7.15482 2.53711 7.5 2.53711Z" fill="#111111"/>
<mask id="mask0_270_25436" style="mask-type:luminance" maskUnits="userSpaceOnUse" x="0" y="0" width="15" height="14">
<path d="M7.5 0.0371094C11.297 0.0371094 14.375 3.11515 14.375 6.91211C14.375 10.7091 11.297 13.7871 7.5 13.7871C3.70304 13.7871 0.625 10.7091 0.625 6.91211C0.625 3.11515 3.70304 0.0371094 7.5 0.0371094ZM7.5 1.28711C4.3934 1.28711 1.875 3.80551 1.875 6.91211C1.875 10.0187 4.3934 12.5371 7.5 12.5371C10.6066 12.5371 13.125 10.0187 13.125 6.91211C13.125 3.80551 10.6066 1.28711 7.5 1.28711ZM7.5 2.53711C7.84518 2.53711 8.125 2.81693 8.125 3.16211V6.65332L9.81738 8.34473C10.0615 8.5888 10.0615 8.98541 9.81738 9.22949C9.57331 9.47357 9.17669 9.47357 8.93262 9.22949L7.05762 7.35449C6.94041 7.23728 6.875 7.07787 6.875 6.91211V3.16211C6.875 2.81693 7.15482 2.53711 7.5 2.53711Z" fill="white"/>
</mask>
<g mask="url(#mask0_270_25436)">
</g>
</svg>
