<svg width="30" height="30" viewBox="0 0 30 30" fill="none" xmlns="http://www.w3.org/2000/svg">
<g clip-path="url(#clip0_340_27114)">
<path d="M24.377 12.1875C24.377 14.877 23.5039 17.3613 22.0332 19.377L29.4512 26.8008C30.1836 27.5332 30.1836 28.7227 29.4512 29.4551C28.7188 30.1875 27.5293 30.1875 26.7969 29.4551L19.3789 22.0312C17.3633 23.5078 14.8789 24.375 12.1895 24.375C5.45703 24.375 0.00195312 18.9199 0.00195312 12.1875C0.00195312 5.45508 5.45703 0 12.1895 0C18.9219 0 24.377 5.45508 24.377 12.1875ZM12.1895 20.625C13.2975 20.625 14.3947 20.4068 15.4183 19.9827C16.442 19.5587 17.3722 18.9372 18.1557 18.1537C18.9392 17.3702 19.5607 16.4401 19.9847 15.4164C20.4087 14.3927 20.627 13.2955 20.627 12.1875C20.627 11.0795 20.4087 9.98229 19.9847 8.95861C19.5607 7.93492 18.9392 7.00478 18.1557 6.22129C17.3722 5.43779 16.442 4.81629 15.4183 4.39227C14.3947 3.96824 13.2975 3.75 12.1895 3.75C11.0814 3.75 9.98425 3.96824 8.96056 4.39227C7.93688 4.81629 7.00673 5.43779 6.22324 6.22129C5.43975 7.00478 4.81824 7.93492 4.39422 8.95861C3.9702 9.98229 3.75195 11.0795 3.75195 12.1875C3.75195 13.2955 3.9702 14.3927 4.39422 15.4164C4.81824 16.4401 5.43975 17.3702 6.22324 18.1537C7.00673 18.9372 7.93688 19.5587 8.96056 19.9827C9.98425 20.4068 11.0814 20.625 12.1895 20.625Z" fill="#7F8185"/>
</g>
<defs>
<clipPath id="clip0_340_27114">
<rect width="29.9985" height="30.0044" fill="white" transform="translate(0.00195312)"/>
</clipPath>
</defs>
</svg>
