<svg width="25" height="185" viewBox="0 0 25 185" fill="none" xmlns="http://www.w3.org/2000/svg">
<path fill-rule="evenodd" clip-rule="evenodd" d="M20.7729 10.5L22.2569 9.01505C22.3435 8.9322 22.4126 8.8329 22.4603 8.72297C22.508 8.61305 22.5332 8.49472 22.5345 8.37491C22.5359 8.25511 22.5133 8.13624 22.468 8.02529C22.4228 7.91434 22.3559 7.81353 22.2712 7.72877C22.1865 7.64402 22.0858 7.57703 21.9749 7.53173C21.8639 7.48643 21.7451 7.46373 21.6253 7.46497C21.5055 7.4662 21.3871 7.49135 21.2772 7.53893C21.1672 7.58651 21.0679 7.65556 20.9849 7.74205L19.4999 9.22705L18.0149 7.74205C17.8438 7.58517 17.6187 7.50043 17.3866 7.50548C17.1544 7.51053 16.9332 7.60499 16.7691 7.76916C16.6049 7.93333 16.5104 8.15454 16.5054 8.38666C16.5003 8.61878 16.5851 8.84389 16.7419 9.01505L18.2269 10.5L16.7419 11.985C16.6584 12.0686 16.5921 12.1679 16.5468 12.2771C16.5016 12.3863 16.4783 12.5033 16.4783 12.6215C16.4783 12.7398 16.5016 12.8568 16.5468 12.966C16.5921 13.0752 16.6584 13.1745 16.7419 13.258C16.8255 13.3416 16.9248 13.4079 17.034 13.4532C17.1432 13.4984 17.2602 13.5217 17.3784 13.5217C17.4967 13.5217 17.6137 13.4984 17.7229 13.4532C17.8321 13.4079 17.9314 13.3416 18.0149 13.258L19.4999 11.773L20.9849 13.258C21.155 13.4208 21.382 13.5105 21.6173 13.5079C21.8526 13.5052 22.0776 13.4106 22.244 13.2441C22.4103 13.0776 22.5048 12.8525 22.5073 12.6172C22.5097 12.3819 22.4198 12.1549 22.2569 11.985L20.7729 10.5ZM10.4999 11.956C11.6547 11.956 12.7622 11.4973 13.5787 10.6808C14.3952 9.86426 14.8539 8.7568 14.8539 7.60205C14.8539 6.44729 14.3952 5.33984 13.5787 4.5233C12.7622 3.70677 11.6547 3.24805 10.4999 3.24805C9.34519 3.24805 8.23774 3.70677 7.4212 4.5233C6.60467 5.33984 6.14595 6.44729 6.14595 7.60205C6.14595 8.7568 6.60467 9.86426 7.4212 10.6808C8.23774 11.4973 9.34519 11.956 10.4999 11.956ZM10.4999 13.288C4.23095 13.288 1.79395 17.277 1.79395 19.133C1.79395 20.988 6.98295 21.482 10.4999 21.482C14.0169 21.482 19.2059 20.988 19.2059 19.132C19.2059 17.277 16.7689 13.288 10.4999 13.288Z" fill="#8B95A1"/>
<path fill-rule="evenodd" clip-rule="evenodd" d="M20.7729 90.5L22.2569 89.015C22.3435 88.9322 22.4126 88.8329 22.4603 88.723C22.508 88.6131 22.5332 88.4947 22.5345 88.3749C22.5359 88.2551 22.5133 88.1362 22.468 88.0253C22.4228 87.9143 22.3559 87.8135 22.2712 87.7288C22.1865 87.644 22.0858 87.577 21.9749 87.5317C21.8639 87.4864 21.7451 87.4637 21.6253 87.465C21.5055 87.4662 21.3871 87.4913 21.2772 87.5389C21.1672 87.5865 21.0679 87.6556 20.9849 87.742L19.4999 89.227L18.0149 87.742C17.8438 87.5852 17.6187 87.5004 17.3866 87.5055C17.1544 87.5105 16.9332 87.605 16.7691 87.7692C16.6049 87.9333 16.5104 88.1545 16.5054 88.3867C16.5003 88.6188 16.5851 88.8439 16.7419 89.015L18.2269 90.5L16.7419 91.985C16.6584 92.0686 16.5921 92.1679 16.5468 92.2771C16.5016 92.3863 16.4783 92.5033 16.4783 92.6215C16.4783 92.7398 16.5016 92.8568 16.5468 92.966C16.5921 93.0752 16.6584 93.1745 16.7419 93.258C16.8255 93.3416 16.9248 93.4079 17.034 93.4532C17.1432 93.4984 17.2602 93.5217 17.3784 93.5217C17.4967 93.5217 17.6137 93.4984 17.7229 93.4532C17.8321 93.4079 17.9314 93.3416 18.0149 93.258L19.4999 91.773L20.9849 93.258C21.155 93.4208 21.382 93.5105 21.6173 93.5079C21.8526 93.5052 22.0776 93.4106 22.244 93.2441C22.4103 93.0776 22.5048 92.8525 22.5073 92.6172C22.5097 92.3819 22.4198 92.1549 22.2569 91.985L20.7729 90.5ZM10.4999 91.956C11.6547 91.956 12.7622 91.4973 13.5787 90.6808C14.3952 89.8643 14.8539 88.7568 14.8539 87.602C14.8539 86.4473 14.3952 85.3398 13.5787 84.5233C12.7622 83.7068 11.6547 83.248 10.4999 83.248C9.34519 83.248 8.23774 83.7068 7.4212 84.5233C6.60467 85.3398 6.14595 86.4473 6.14595 87.602C6.14595 88.7568 6.60467 89.8643 7.4212 90.6808C8.23774 91.4973 9.34519 91.956 10.4999 91.956ZM10.4999 93.288C4.23095 93.288 1.79395 97.277 1.79395 99.133C1.79395 100.988 6.98295 101.482 10.4999 101.482C14.0169 101.482 19.2059 100.988 19.2059 99.132C19.2059 97.277 16.7689 93.288 10.4999 93.288Z" fill="#8B95A1"/>
<path fill-rule="evenodd" clip-rule="evenodd" d="M20.7729 170.5L22.2569 169.015C22.3435 168.932 22.4126 168.833 22.4603 168.723C22.508 168.613 22.5332 168.495 22.5345 168.375C22.5359 168.255 22.5133 168.136 22.468 168.025C22.4228 167.914 22.3559 167.814 22.2712 167.729C22.1865 167.644 22.0858 167.577 21.9749 167.532C21.8639 167.486 21.7451 167.464 21.6253 167.465C21.5055 167.466 21.3871 167.491 21.2772 167.539C21.1672 167.587 21.0679 167.656 20.9849 167.742L19.4999 169.227L18.0149 167.742C17.8438 167.585 17.6187 167.5 17.3866 167.505C17.1544 167.511 16.9332 167.605 16.7691 167.769C16.6049 167.933 16.5104 168.155 16.5054 168.387C16.5003 168.619 16.5851 168.844 16.7419 169.015L18.2269 170.5L16.7419 171.985C16.6584 172.069 16.5921 172.168 16.5468 172.277C16.5016 172.386 16.4783 172.503 16.4783 172.622C16.4783 172.74 16.5016 172.857 16.5468 172.966C16.5921 173.075 16.6584 173.174 16.7419 173.258C16.8255 173.342 16.9248 173.408 17.034 173.453C17.1432 173.498 17.2602 173.522 17.3784 173.522C17.4967 173.522 17.6137 173.498 17.7229 173.453C17.8321 173.408 17.9314 173.342 18.0149 173.258L19.4999 171.773L20.9849 173.258C21.155 173.421 21.382 173.51 21.6173 173.508C21.8526 173.505 22.0776 173.411 22.244 173.244C22.4103 173.078 22.5048 172.853 22.5073 172.617C22.5097 172.382 22.4198 172.155 22.2569 171.985L20.7729 170.5ZM10.4999 171.956C11.6547 171.956 12.7622 171.497 13.5787 170.681C14.3952 169.864 14.8539 168.757 14.8539 167.602C14.8539 166.447 14.3952 165.34 13.5787 164.523C12.7622 163.707 11.6547 163.248 10.4999 163.248C9.34519 163.248 8.23774 163.707 7.4212 164.523C6.60467 165.34 6.14595 166.447 6.14595 167.602C6.14595 168.757 6.60467 169.864 7.4212 170.681C8.23774 171.497 9.34519 171.956 10.4999 171.956ZM10.4999 173.288C4.23095 173.288 1.79395 177.277 1.79395 179.133C1.79395 180.988 6.98295 181.482 10.4999 181.482C14.0169 181.482 19.2059 180.988 19.2059 179.132C19.2059 177.277 16.7689 173.288 10.4999 173.288Z" fill="#8B95A1"/>
</svg>
