<svg width="20" height="20" viewBox="0 0 20 20" fill="none" xmlns="http://www.w3.org/2000/svg">
<path fill-rule="evenodd" clip-rule="evenodd" d="M13.7641 1.79182L5.02908 6.28099H2.43408C1.95908 6.28099 1.57324 6.66682 1.57324 7.14182V12.8585C1.57324 13.3335 1.95908 13.7193 2.43408 13.7193H5.02908L13.7641 18.2085C13.8911 18.2738 14.0329 18.3053 14.1756 18.3C14.3184 18.2948 14.4574 18.2529 14.5793 18.1784C14.7012 18.1039 14.8019 17.9994 14.8718 17.8748C14.9417 17.7502 14.9783 17.6097 14.9782 17.4668V2.53348C14.9783 2.39063 14.9417 2.25015 14.8718 2.12553C14.8019 2.00092 14.7012 1.89636 14.5793 1.82189C14.4574 1.74742 14.3184 1.70554 14.1756 1.70027C14.0329 1.69501 13.8911 1.72653 13.7641 1.79182ZM17.6966 7.63932H16.0666V12.361H17.6957C18.2991 12.361 18.7874 11.8718 18.7874 11.2685V8.73265C18.7874 8.12849 18.2991 7.63932 17.6957 7.63932" fill="#40C5B7"/>
</svg>
