<svg width="18" height="18" viewBox="0 0 18 18" fill="none" xmlns="http://www.w3.org/2000/svg">
<path d="M9 0.75C13.5563 0.75 17.25 4.44365 17.25 9C17.25 13.5563 13.5563 17.25 9 17.25C4.44365 17.25 0.75 13.5563 0.75 9C0.75 4.44365 4.44365 0.75 9 0.75ZM9 2.25C5.27208 2.25 2.25 5.27208 2.25 9C2.25 12.7279 5.27208 15.75 9 15.75C12.7279 15.75 15.75 12.7279 15.75 9C15.75 5.27208 12.7279 2.25 9 2.25ZM11.9424 5.1084C12.5287 4.91296 13.087 5.4713 12.8916 6.05762L11.3018 10.8271C11.2271 11.0511 11.0511 11.2271 10.8271 11.3018L6.05762 12.8916C5.4713 13.087 4.91296 12.5287 5.1084 11.9424L6.69824 7.17285C6.77289 6.9489 6.9489 6.77289 7.17285 6.69824L11.9424 5.1084ZM8.00293 8.00293L7.00586 10.9941L9.99707 9.99707L10.9941 7.00586L8.00293 8.00293Z" fill="#111111"/>
</svg>
