<svg width="19" height="19" viewBox="0 0 19 19" fill="none" xmlns="http://www.w3.org/2000/svg">
<path fill-rule="evenodd" clip-rule="evenodd" d="M8.29688 7.35193C8.00121 7.35193 7.70053 7.62045 7.70053 8.01812C7.70053 8.31925 7.76499 8.42784 7.79731 8.46911C7.83565 8.51805 7.91235 8.57905 8.11748 8.65243L10.6837 9.54985C10.9839 9.65698 11.327 9.82513 11.5832 10.1541C11.8451 10.4904 11.9518 10.9098 11.9518 11.3918C11.9518 12.4403 11.1423 13.3391 10.0775 13.3391H8.47581C7.31265 13.3391 6.41406 12.359 6.41406 11.2039C6.41406 10.8501 6.70014 10.5633 7.05303 10.5633C7.40592 10.5633 7.692 10.8501 7.692 11.2039C7.692 11.7057 8.07137 12.058 8.47581 12.058H10.0775C10.3758 12.058 10.6739 11.7952 10.6739 11.3918C10.6739 11.0965 10.6101 10.9864 10.576 10.9426C10.5363 10.8917 10.458 10.8294 10.2569 10.7575L7.69072 9.86004C7.39452 9.75435 7.04985 9.58921 6.79225 9.26036C6.52852 8.92369 6.42259 8.50276 6.42259 8.01812C6.42259 6.98093 7.22942 6.0708 8.29688 6.0708H9.89857C11.0617 6.0708 11.9603 7.05091 11.9603 8.20602C11.9603 8.5598 11.6742 8.84659 11.3213 8.84659C10.9685 8.84659 10.6824 8.5598 10.6824 8.20602C10.6824 7.7042 10.303 7.35193 9.89857 7.35193H8.29688Z" fill="#3A3A3A"/>
<path fill-rule="evenodd" clip-rule="evenodd" d="M9.18389 5.2251C9.53678 5.2251 9.82286 5.51189 9.82286 5.86566V13.5525C9.82286 13.9062 9.53678 14.193 9.18389 14.193C8.831 14.193 8.54492 13.9062 8.54492 13.5525V5.86566C8.54492 5.51189 8.831 5.2251 9.18389 5.2251Z" fill="#3A3A3A"/>
<path fill-rule="evenodd" clip-rule="evenodd" d="M9.18394 1.80848C4.83402 1.80848 1.30333 5.348 1.30333 9.70879C1.30333 14.0696 4.83402 17.6091 9.18394 17.6091C13.5339 17.6091 17.0646 14.0696 17.0646 9.70879C17.0646 9.35502 17.3506 9.06822 17.7035 9.06822C18.0564 9.06822 18.3425 9.35502 18.3425 9.70879C18.3425 14.7771 14.2396 18.8902 9.18394 18.8902C4.12824 18.8902 0.0253906 14.7771 0.0253906 9.70879C0.0253906 4.64045 4.12824 0.527344 9.18394 0.527344C9.53683 0.527344 9.82291 0.814135 9.82291 1.16791C9.82291 1.52168 9.53683 1.80848 9.18394 1.80848Z" fill="#3A3A3A"/>
<path fill-rule="evenodd" clip-rule="evenodd" d="M13.4437 1.38184C13.7965 1.38184 14.0826 1.66863 14.0826 2.0224V4.79819H16.8515C17.2044 4.79819 17.4905 5.08498 17.4905 5.43875C17.4905 5.79253 17.2044 6.07932 16.8515 6.07932H13.4437C13.0908 6.07932 12.8047 5.79253 12.8047 5.43875V2.0224C12.8047 1.66863 13.0908 1.38184 13.4437 1.38184Z" fill="#3A3A3A"/>
<path fill-rule="evenodd" clip-rule="evenodd" d="M18.1553 0.714961C18.4048 0.965118 18.4048 1.3707 18.1553 1.62086L13.8955 5.8913C13.6459 6.14146 13.2414 6.14146 12.9918 5.8913C12.7423 5.64114 12.7423 5.23556 12.9918 4.9854L17.2516 0.714961C17.5012 0.464805 17.9057 0.464805 18.1553 0.714961Z" fill="#3A3A3A"/>
</svg>
