<svg width="21" height="21" viewBox="0 0 21 21" fill="none" xmlns="http://www.w3.org/2000/svg">
<path d="M10.5234 15.9438C13.2818 15.9438 15.5234 13.7021 15.5234 10.9438V6.7771C15.5234 4.01877 13.2818 1.7771 10.5234 1.7771C7.7651 1.7771 5.52344 4.01877 5.52344 6.7771V10.9438C5.52344 13.7021 7.7651 15.9438 10.5234 15.9438Z" stroke="#5D5D5D" stroke-width="1.5" stroke-linecap="round" stroke-linejoin="round"/>
<path d="M3.02344 9.2771V10.9438C3.02344 15.0854 6.38177 18.4438 10.5234 18.4438C14.6651 18.4438 18.0234 15.0854 18.0234 10.9438V9.2771" stroke="#5D5D5D" stroke-width="1.5" stroke-linecap="round" stroke-linejoin="round"/>
<path d="M8.11719 6.34375C9.60052 5.80208 11.2172 5.80208 12.7005 6.34375" stroke="#5D5D5D" stroke-width="1.5" stroke-linecap="round" stroke-linejoin="round"/>
<path d="M8.88281 8.8437C9.88281 8.5687 10.9411 8.5687 11.9411 8.8437" stroke="#5D5D5D" stroke-width="1.5" stroke-linecap="round" stroke-linejoin="round"/>
</svg>
