<svg width="21" height="21" viewBox="0 0 21 21" fill="none" xmlns="http://www.w3.org/2000/svg">
<path d="M10.5 16.1938C13.2583 16.1938 15.5 13.9521 15.5 11.1938V7.0271C15.5 4.26877 13.2583 2.0271 10.5 2.0271C7.74167 2.0271 5.5 4.26877 5.5 7.0271V11.1938C5.5 13.9521 7.74167 16.1938 10.5 16.1938Z" stroke="#5D5D5D" stroke-width="1.5" stroke-linecap="round" stroke-linejoin="round"/>
<path d="M3 9.5271V11.1938C3 15.3354 6.35833 18.6938 10.5 18.6938C14.6417 18.6938 18 15.3354 18 11.1938V9.5271" stroke="#5D5D5D" stroke-width="1.5" stroke-linecap="round" stroke-linejoin="round"/>
<path d="M8.09375 6.59375C9.57708 6.05208 11.1938 6.05208 12.6771 6.59375" stroke="#5D5D5D" stroke-width="1.5" stroke-linecap="round" stroke-linejoin="round"/>
<path d="M8.85938 9.0937C9.85938 8.8187 10.9177 8.8187 11.9177 9.0937" stroke="#5D5D5D" stroke-width="1.5" stroke-linecap="round" stroke-linejoin="round"/>
</svg>
