<svg width="21" height="21" viewBox="0 0 21 21" fill="none" xmlns="http://www.w3.org/2000/svg">
<path d="M10.5 15.9438C13.2583 15.9438 15.5 13.7021 15.5 10.9438V6.7771C15.5 4.01877 13.2583 1.7771 10.5 1.7771C7.74167 1.7771 5.5 4.01877 5.5 6.7771V10.9438C5.5 13.7021 7.74167 15.9438 10.5 15.9438Z" stroke="#5D5D5D" stroke-width="1.5" stroke-linecap="round" stroke-linejoin="round"/>
<path d="M3 9.2771V10.9438C3 15.0854 6.35833 18.4438 10.5 18.4438C14.6417 18.4438 18 15.0854 18 10.9438V9.2771" stroke="#5D5D5D" stroke-width="1.5" stroke-linecap="round" stroke-linejoin="round"/>
<path d="M8.09375 6.34375C9.57708 5.80208 11.1938 5.80208 12.6771 6.34375" stroke="#5D5D5D" stroke-width="1.5" stroke-linecap="round" stroke-linejoin="round"/>
<path d="M8.85938 8.8437C9.85938 8.5687 10.9177 8.5687 11.9177 8.8437" stroke="#5D5D5D" stroke-width="1.5" stroke-linecap="round" stroke-linejoin="round"/>
</svg>
