<svg width="21" height="21" viewBox="0 0 21 21" fill="none" xmlns="http://www.w3.org/2000/svg">
<path d="M10.4727 16.1938C13.231 16.1938 15.4727 13.9521 15.4727 11.1938V7.0271C15.4727 4.26877 13.231 2.0271 10.4727 2.0271C7.71432 2.0271 5.47266 4.26877 5.47266 7.0271V11.1938C5.47266 13.9521 7.71432 16.1938 10.4727 16.1938Z" stroke="#5D5D5D" stroke-width="1.5" stroke-linecap="round" stroke-linejoin="round"/>
<path d="M2.97266 9.5271V11.1938C2.97266 15.3354 6.33099 18.6938 10.4727 18.6938C14.6143 18.6938 17.9727 15.3354 17.9727 11.1938V9.5271" stroke="#5D5D5D" stroke-width="1.5" stroke-linecap="round" stroke-linejoin="round"/>
<path d="M8.0625 6.59375C9.54583 6.05208 11.1625 6.05208 12.6458 6.59375" stroke="#5D5D5D" stroke-width="1.5" stroke-linecap="round" stroke-linejoin="round"/>
<path d="M8.82812 9.0937C9.82813 8.8187 10.8865 8.8187 11.8865 9.0937" stroke="#5D5D5D" stroke-width="1.5" stroke-linecap="round" stroke-linejoin="round"/>
</svg>
