<svg width="21" height="21" viewBox="0 0 21 21" fill="none" xmlns="http://www.w3.org/2000/svg">
<path d="M10.0234 16.1938C12.7818 16.1938 15.0234 13.9521 15.0234 11.1938V7.0271C15.0234 4.26877 12.7818 2.0271 10.0234 2.0271C7.2651 2.0271 5.02344 4.26877 5.02344 7.0271V11.1938C5.02344 13.9521 7.2651 16.1938 10.0234 16.1938Z" stroke="#5D5D5D" stroke-width="1.5" stroke-linecap="round" stroke-linejoin="round"/>
<path d="M2.52344 9.5271V11.1938C2.52344 15.3354 5.88177 18.6938 10.0234 18.6938C14.1651 18.6938 17.5234 15.3354 17.5234 11.1938V9.5271" stroke="#5D5D5D" stroke-width="1.5" stroke-linecap="round" stroke-linejoin="round"/>
<path d="M7.61719 6.59375C9.10052 6.05208 10.7172 6.05208 12.2005 6.59375" stroke="#5D5D5D" stroke-width="1.5" stroke-linecap="round" stroke-linejoin="round"/>
<path d="M8.38281 9.0937C9.38281 8.8187 10.4411 8.8187 11.4411 9.0937" stroke="#5D5D5D" stroke-width="1.5" stroke-linecap="round" stroke-linejoin="round"/>
</svg>
